<?xml version="1.0" encoding="UTF-8"?>
<svg version="1.1" xmlns="http://www.w3.org/2000/svg" width="483" height="322">
<path d="M0 0 C2.64 0 5.28 0 8 0 C8 0.66 8 1.32 8 2 C8.66 2 9.32 2 10 2 C10 2.66 10 3.32 10 4 C10.66 4 11.32 4 12 4 C12 5.32 12 6.64 12 8 C12.66 8 13.32 8 14 8 C14 8.66 14 9.32 14 10 C14.66 10 15.32 10 16 10 C16 11.32 16 12.64 16 14 C16.66 14 17.32 14 18 14 C20 17 20 17 20 20 C20.66 20 21.32 20 22 20 C22 20.66 22 21.32 22 22 C22.66 22 23.32 22 24 22 C24 23.32 24 24.64 24 26 C24.66 26 25.32 26 26 26 C26 26.66 26 27.32 26 28 C26.66 28 27.32 28 28 28 C28 29.32 28 30.64 28 32 C28.66 32 29.32 32 30 32 C30 32.66 30 33.32 30 34 C30.66 34 31.32 34 32 34 C32 35.32 32 36.64 32 38 C32.66 38 33.32 38 34 38 C34 38.66 34 39.32 34 40 C34.66 40 35.32 40 36 40 C36 41.32 36 42.64 36 44 C36.66 44 37.32 44 38 44 C38 44.66 38 45.32 38 46 C38.66 46 39.32 46 40 46 C40.99 48.97 40.99 48.97 42 52 C42.66 52 43.32 52 44 52 C46 55 46 55 46 58 C46.66 58 47.32 58 48 58 C48 58.66 48 59.32 48 60 C48.66 60 49.32 60 50 60 C50 61.32 50 62.64 50 64 C50.66 64 51.32 64 52 64 C52 64.66 52 65.32 52 66 C52.66 66 53.32 66 54 66 C54 67.32 54 68.64 54 70 C54.66 70 55.32 70 56 70 C56 70.66 56 71.32 56 72 C56.66 72 57.32 72 58 72 C58 73.32 58 74.64 58 76 C58.66 76 59.32 76 60 76 C60 76.66 60 77.32 60 78 C60.66 78 61.32 78 62 78 C62 78.66 62 79.32 62 80 C62.66 80 63.32 80 64 80 C64.125 82.875 64.125 82.875 64 86 C61.56286881 88.43713119 60.91066206 88.2562288 57.5703125 88.265625 C56.25353516 88.26949219 56.25353516 88.26949219 54.91015625 88.2734375 C53.99105469 88.26570313 53.07195312 88.25796875 52.125 88.25 C51.21363281 88.25773437 50.30226563 88.26546875 49.36328125 88.2734375 C48.48285156 88.27085938 47.60242188 88.26828125 46.6953125 88.265625 C45.89109863 88.26336914 45.08688477 88.26111328 44.25830078 88.25878906 C41.78464659 87.97532166 40.14402046 87.23549563 38 86 C38 86.66 38 87.32 38 88 C37.01 88.66 36.02 89.32 35 90 C34.56900401 92.01125036 34.56900401 92.01125036 34.671875 94.31640625 C34.67960937 95.58581055 34.67960937 95.58581055 34.6875 96.88085938 C34.7184375 98.20827148 34.7184375 98.20827148 34.75 99.5625 C34.75773437 100.89571289 34.75773437 100.89571289 34.765625 102.25585938 C34.44739345 106.45727079 34.44739345 106.45727079 36 110 C36.09575309 111.50551174 36.12188187 113.0155103 36.12025452 114.52406311 C36.12231651 115.99018791 36.12231651 115.99018791 36.12442017 117.4859314 C36.12082489 118.56702179 36.11722961 119.64811218 36.11352539 120.76196289 C36.11367142 121.8935231 36.11381744 123.02508331 36.1139679 124.19093323 C36.11326819 127.95152671 36.10547311 131.71207137 36.09765625 135.47265625 C36.09579227 138.07197543 36.09436828 140.67129497 36.09336853 143.27061462 C36.08993341 149.42588577 36.08204256 155.5811366 36.07201904 161.73640007 C36.06085694 168.74233346 36.05534721 175.74826767 36.05032361 182.75420773 C36.03985992 197.16948133 36.02226108 211.58474004 36 226 C35.34 226 34.68 226 34 226 C34 226.66 34 227.32 34 228 C33.34 228 32.68 228 32 228 C32 228.66 32 229.32 32 230 C30.71222656 230.06058594 29.42445313 230.12117187 28.09765625 230.18359375 C26.41925841 230.26798247 24.74087364 230.3526313 23.0625 230.4375 C22.21236328 230.47681641 21.36222656 230.51613281 20.48632812 230.55664062 C19.27299805 230.61948242 19.27299805 230.61948242 18.03515625 230.68359375 C17.2862915 230.72025146 16.53742676 230.75690918 15.76586914 230.79467773 C13.97538674 230.81771063 13.97538674 230.81771063 13 232 C11.48071962 232.07179964 9.95832518 232.08392007 8.4375 232.0625 C7.61121094 232.05347656 6.78492188 232.04445312 5.93359375 232.03515625 C5.29550781 232.02355469 4.65742188 232.01195312 4 232 C4 232.66 4 233.32 4 234 C2.02 234 0.04 234 -2 234 C-2 234.66 -2 235.32 -2 236 C-3.98 236 -5.96 236 -8 236 C-8 236.66 -8 237.32 -8 238 C-9.98 238 -11.96 238 -14 238 C-14 238.66 -14 239.32 -14 240 C-15.32 240 -16.64 240 -18 240 C-18 240.66 -18 241.32 -18 242 C-19.32 242 -20.64 242 -22 242 C-22 242.66 -22 243.32 -22 244 C-23.32 244 -24.64 244 -26 244 C-26 244.66 -26 245.32 -26 246 C-27.32 246 -28.64 246 -30 246 C-30 246.66 -30 247.32 -30 248 C-33.96 248 -37.92 248 -42 248 C-42 247.34 -42 246.68 -42 246 C-43.32 246 -44.64 246 -46 246 C-46 245.34 -46 244.68 -46 244 C-47.32 244 -48.64 244 -50 244 C-50 243.34 -50 242.68 -50 242 C-50.66 242 -51.32 242 -52 242 C-52 241.34 -52 240.68 -52 240 C-52.66 240 -53.32 240 -54 240 C-54 239.34 -54 238.68 -54 238 C-54.66 238 -55.32 238 -56 238 C-56 237.34 -56 236.68 -56 236 C-56.66 236 -57.32 236 -58 236 C-58 235.34 -58 234.68 -58 234 C-58.66 234 -59.32 234 -60 234 C-60 232.68 -60 231.36 -60 230 C-60.66 230 -61.32 230 -62 230 C-62 229.34 -62 228.68 -62 228 C-62.66 228 -63.32 228 -64 228 C-64 226.68 -64 225.36 -64 224 C-64.66 224 -65.32 224 -66 224 C-66 222.68 -66 221.36 -66 220 C-66.66 220 -67.32 220 -68 220 C-68 218.68 -68 217.36 -68 216 C-68.66 216 -69.32 216 -70 216 C-70 214.68 -70 213.36 -70 212 C-70.66 212 -71.32 212 -72 212 C-72 210.68 -72 209.36 -72 208 C-72.66 208 -73.32 208 -74 208 C-74 206.68 -74 205.36 -74 204 C-74.66 204 -75.32 204 -76 204 C-76 202.68 -76 201.36 -76 200 C-76.66 200 -77.32 200 -78 200 C-78 198.68 -78 197.36 -78 196 C-78.66 196 -79.32 196 -80 196 C-80 194.68 -80 193.36 -80 192 C-80.66 192 -81.32 192 -82 192 C-83.76462683 188.91190305 -84 187.76687864 -84 184 C-84.66 184 -85.32 184 -86 184 C-86.66 182.02 -87.32 180.04 -88 178 C-88.66 178 -89.32 178 -90 178 C-90 176.68 -90 175.36 -90 174 C-90.66 174 -91.32 174 -92 174 C-92 172.68 -92 171.36 -92 170 C-92.66 170 -93.32 170 -94 170 C-94 168.68 -94 167.36 -94 166 C-94.66 166 -95.32 166 -96 166 C-96 164.68 -96 163.36 -96 162 C-96.66 162 -97.32 162 -98 162 C-98 160.68 -98 159.36 -98 158 C-98.66 158 -99.32 158 -100 158 C-100 156.68 -100 155.36 -100 154 C-100.66 154 -101.32 154 -102 154 C-102 152.68 -102 151.36 -102 150 C-102.66 150 -103.32 150 -104 150 C-104 148.68 -104 147.36 -104 146 C-104.66 146 -105.32 146 -106 146 C-106 144.68 -106 143.36 -106 142 C-106.66 142 -107.32 142 -108 142 C-108 140.68 -108 139.36 -108 138 C-108.66 138 -109.32 138 -110 138 C-110.66 136.02 -111.32 134.04 -112 132 C-112.66 132 -113.32 132 -114 132 C-114.33 131.34 -114.66 130.68 -115 130 C-115.33 166.3 -115.66 202.6 -116 240 C-116.66 240 -117.32 240 -118 240 C-118 240.66 -118 241.32 -118 242 C-120.64 242 -123.28 242 -126 242 C-126 241.34 -126 240.68 -126 240 C-127.32 240 -128.64 240 -130 240 C-130 239.34 -130 238.68 -130 238 C-131.32 238 -132.64 238 -134 238 C-134 237.34 -134 236.68 -134 236 C-135.98 236 -137.96 236 -140 236 C-140 235.34 -140 234.68 -140 234 C-141.98 234 -143.96 234 -146 234 C-146 233.34 -146 232.68 -146 232 C-148.64 232 -151.28 232 -154 232 C-154 231.34 -154 230.68 -154 230 C-155.25296875 230.02320313 -156.5059375 230.04640625 -157.796875 230.0703125 C-159.4479107 230.08907427 -161.09895285 230.10727403 -162.75 230.125 C-163.9875 230.15013672 -163.9875 230.15013672 -165.25 230.17578125 C-166.04921875 230.18222656 -166.8484375 230.18867188 -167.671875 230.1953125 C-168.4050293 230.20578613 -169.13818359 230.21625977 -169.89355469 230.22705078 C-172.34844342 229.96244177 -173.91170952 229.30532227 -176 228 C-178.17369837 224.17015049 -177.84217205 222.16626694 -177 218 C-176.9014009 215.85237917 -176.85404644 213.70213991 -176.84178162 211.55229187 C-176.8319928 210.24963882 -176.82220398 208.94698578 -176.81211853 207.6048584 C-176.80621507 206.1684574 -176.80040458 204.73205601 -176.79467773 203.2956543 C-176.78509386 201.77769202 -176.77508348 200.25973239 -176.76467896 198.74177551 C-176.73767905 194.62651728 -176.71664292 190.51124764 -176.69667697 186.39595008 C-176.67478706 182.09311333 -176.64741309 177.79031156 -176.62062073 173.48750305 C-176.57073445 165.34201624 -176.52578055 157.19650997 -176.48259836 149.05098516 C-176.43319123 139.77653649 -176.378286 130.50212292 -176.32291877 121.22770822 C-176.20916113 102.15183808 -176.10230857 83.07593481 -176 64 C-176.66 64 -177.32 64 -178 64 C-178.20086443 60.28400809 -178.1519437 59.22791555 -176 56 C-173.26301575 55.6257782 -173.26301575 55.6257782 -169.73364258 55.62768555 C-168.4149971 55.62145676 -167.09635162 55.61522797 -165.73774719 55.60881042 C-164.29000475 55.6175027 -162.84226595 55.62682115 -161.39453125 55.63671875 C-159.91200257 55.63723744 -158.42947319 55.6367194 -156.94694519 55.63520813 C-153.8339109 55.63529796 -150.72113497 55.6457438 -147.6081543 55.66381836 C-143.6314717 55.68640739 -139.65516999 55.68706875 -135.67844105 55.68030071 C-132.61307944 55.67694524 -129.54780344 55.68362203 -126.48245811 55.69342995 C-125.01734555 55.69726254 -123.55222342 55.69843826 -122.0871067 55.6968441 C-120.02899985 55.69647 -117.97136542 55.70919179 -115.91333008 55.7253418 C-114.16032341 55.73225288 -114.16032341 55.73225288 -112.37190247 55.73930359 C-108.62529303 56.02897022 -105.56868352 56.85674118 -102 58 C-102 58.66 -102 59.32 -102 60 C-100.68 60 -99.36 60 -98 60 C-98 60.66 -98 61.32 -98 62 C-96.02 62.66 -94.04 63.32 -92 64 C-92 64.66 -92 65.32 -92 66 C-91.34 66 -90.68 66 -90 66 C-90 66.66 -90 67.32 -90 68 C-89.38125 68.12375 -88.7625 68.2475 -88.125 68.375 C-86 69 -86 69 -84 71 C-84 71.99 -84 72.98 -84 74 C-83.34 74 -82.68 74 -82 74 C-82 74.66 -82 75.32 -82 76 C-81.34 76 -80.68 76 -80 76 C-80 77.32 -80 78.64 -80 80 C-79.34 80 -78.68 80 -78 80 C-78 81.32 -78 82.64 -78 84 C-77.34 84 -76.68 84 -76 84 C-76 85.32 -76 86.64 -76 88 C-75.34 88 -74.68 88 -74 88 C-74 89.32 -74 90.64 -74 92 C-73.34 92 -72.68 92 -72 92 C-72 93.32 -72 94.64 -72 96 C-71.34 96 -70.68 96 -70 96 C-70 97.32 -70 98.64 -70 100 C-69.34 100 -68.68 100 -68 100 C-68 101.32 -68 102.64 -68 104 C-67.34 104 -66.68 104 -66 104 C-66 105.32 -66 106.64 -66 108 C-65.34 108 -64.68 108 -64 108 C-64 109.32 -64 110.64 -64 112 C-63.34 112 -62.68 112 -62 112 C-60 115 -60 115 -60 118 C-59.34 118 -58.68 118 -58 118 C-58 119.32 -58 120.64 -58 122 C-57.34 122 -56.68 122 -56 122 C-55.01 125.96 -55.01 125.96 -54 130 C-53.34 130 -52.68 130 -52 130 C-52 131.32 -52 132.64 -52 134 C-51.34 134 -50.68 134 -50 134 C-50 135.32 -50 136.64 -50 138 C-49.34 138 -48.68 138 -48 138 C-48 139.32 -48 140.64 -48 142 C-47.34 142 -46.68 142 -46 142 C-46 143.32 -46 144.64 -46 146 C-45.34 146 -44.68 146 -44 146 C-44 147.32 -44 148.64 -44 150 C-43.34 150 -42.68 150 -42 150 C-42 151.32 -42 152.64 -42 154 C-41.34 154 -40.68 154 -40 154 C-40 155.32 -40 156.64 -40 158 C-39.34 158 -38.68 158 -38 158 C-38 159.32 -38 160.64 -38 162 C-37.34 162 -36.68 162 -36 162 C-36 163.32 -36 164.64 -36 166 C-35.34 166 -34.68 166 -34 166 C-32 169 -32 169 -32 172 C-31.34 172 -30.68 172 -30 172 C-30 173.32 -30 174.64 -30 176 C-29.34 176 -28.68 176 -28 176 C-28 176.66 -28 177.32 -28 178 C-27.34 178 -26.68 178 -26 178 C-26.00444122 176.95652405 -26.00888245 175.9130481 -26.01345825 174.83795166 C-26.05398461 165.00882656 -26.08397493 155.17971838 -26.10362434 145.35052872 C-26.11406585 140.29712698 -26.12823181 135.24379264 -26.15087891 130.19042969 C-26.17259411 125.31454556 -26.18456586 120.4387263 -26.18975449 115.56279755 C-26.19345261 113.70164722 -26.20067403 111.84050049 -26.21146011 109.97937775 C-26.22595741 107.37451986 -26.22797868 104.76993074 -26.22705078 102.16503906 C-26.23424133 101.39395813 -26.24143188 100.6228772 -26.24884033 99.82843018 C-26.23431382 96.06494527 -26.11217835 93.19177395 -24 90 C-24.66 90 -25.32 90 -26 90 C-26.66 89.01 -27.32 88.02 -28 87 C-30.05925139 86.27617533 -30.05925139 86.27617533 -32 86 C-32 86.66 -32 87.32 -32 88 C-38.6 88 -45.2 88 -52 88 C-52 87.34 -52 86.68 -52 86 C-52.66 86 -53.32 86 -54 86 C-54 84.02 -54 82.04 -54 80 C-53.34 80 -52.68 80 -52 80 C-51.855625 79.38125 -51.71125 78.7625 -51.5625 78.125 C-51 76 -51 76 -50 74 C-49.34 74 -48.68 74 -48 74 C-48 73.34 -48 72.68 -48 72 C-47.34 72 -46.68 72 -46 72 C-46 70.68 -46 69.36 -46 68 C-45.34 68 -44.68 68 -44 68 C-44 67.34 -44 66.68 -44 66 C-43.34 66 -42.68 66 -42 66 C-41.855625 65.38125 -41.71125 64.7625 -41.5625 64.125 C-41 62 -41 62 -40 60 C-39.34 60 -38.68 60 -38 60 C-37.855625 59.38125 -37.71125 58.7625 -37.5625 58.125 C-37 56 -37 56 -36 54 C-35.34 54 -34.68 54 -34 54 C-33.855625 53.38125 -33.71125 52.7625 -33.5625 52.125 C-33 50 -33 50 -32 48 C-31.34 48 -30.68 48 -30 48 C-29.01 45.03 -29.01 45.03 -28 42 C-27.34 42 -26.68 42 -26 42 C-26 41.34 -26 40.68 -26 40 C-25.34 40 -24.68 40 -24 40 C-24 38.68 -24 37.36 -24 36 C-23.34 36 -22.68 36 -22 36 C-22 35.34 -22 34.68 -22 34 C-21.34 34 -20.68 34 -20 34 C-20 32.68 -20 31.36 -20 30 C-19.34 30 -18.68 30 -18 30 C-18 29.34 -18 28.68 -18 28 C-17.34 28 -16.68 28 -16 28 C-16 26.68 -16 25.36 -16 24 C-15.34 24 -14.68 24 -14 24 C-14 23.34 -14 22.68 -14 22 C-13.34 22 -12.68 22 -12 22 C-11.7834375 21.071875 -11.7834375 21.071875 -11.5625 20.125 C-11 18 -11 18 -10 16 C-9.34 16 -8.68 16 -8 16 C-8 15.34 -8 14.68 -8 14 C-7.34 14 -6.68 14 -6 14 C-6 12.68 -6 11.36 -6 10 C-5.34 10 -4.68 10 -4 10 C-4 8.68 -4 7.36 -4 6 C-3.34 6 -2.68 6 -2 6 C-2 4.68 -2 3.36 -2 2 C-1.34 2 -0.68 2 0 2 C0 1.34 0 0.68 0 0 Z " fill="#040404" transform="translate(311,3)"/>
<path d="M0 0 C2.64 0 5.28 0 8 0 C8 0.66 8 1.32 8 2 C8.66 2 9.32 2 10 2 C10 2.66 10 3.32 10 4 C10.66 4 11.32 4 12 4 C12 5.32 12 6.64 12 8 C12.66 8 13.32 8 14 8 C14 8.66 14 9.32 14 10 C14.66 10 15.32 10 16 10 C16 11.32 16 12.64 16 14 C16.66 14 17.32 14 18 14 C20 17 20 17 20 20 C20.66 20 21.32 20 22 20 C22 20.66 22 21.32 22 22 C22.66 22 23.32 22 24 22 C24 23.32 24 24.64 24 26 C24.66 26 25.32 26 26 26 C26 26.66 26 27.32 26 28 C26.66 28 27.32 28 28 28 C28 29.32 28 30.64 28 32 C28.66 32 29.32 32 30 32 C30 32.66 30 33.32 30 34 C30.66 34 31.32 34 32 34 C32 35.32 32 36.64 32 38 C32.66 38 33.32 38 34 38 C34 38.66 34 39.32 34 40 C34.66 40 35.32 40 36 40 C36 41.32 36 42.64 36 44 C36.66 44 37.32 44 38 44 C38 44.66 38 45.32 38 46 C38.66 46 39.32 46 40 46 C40.99 48.97 40.99 48.97 42 52 C42.66 52 43.32 52 44 52 C46 55 46 55 46 58 C46.66 58 47.32 58 48 58 C48 58.66 48 59.32 48 60 C48.66 60 49.32 60 50 60 C50 61.32 50 62.64 50 64 C50.66 64 51.32 64 52 64 C52 64.66 52 65.32 52 66 C52.66 66 53.32 66 54 66 C54 67.32 54 68.64 54 70 C54.66 70 55.32 70 56 70 C56 70.66 56 71.32 56 72 C56.66 72 57.32 72 58 72 C58 73.32 58 74.64 58 76 C58.66 76 59.32 76 60 76 C60 76.66 60 77.32 60 78 C60.66 78 61.32 78 62 78 C62 78.66 62 79.32 62 80 C62.66 80 63.32 80 64 80 C64.125 82.875 64.125 82.875 64 86 C61.56286881 88.43713119 60.91066206 88.2562288 57.5703125 88.265625 C56.25353516 88.26949219 56.25353516 88.26949219 54.91015625 88.2734375 C53.99105469 88.26570313 53.07195312 88.25796875 52.125 88.25 C51.21363281 88.25773437 50.30226563 88.26546875 49.36328125 88.2734375 C48.48285156 88.27085938 47.60242188 88.26828125 46.6953125 88.265625 C45.89109863 88.26336914 45.08688477 88.26111328 44.25830078 88.25878906 C41.78464659 87.97532166 40.14402046 87.23549563 38 86 C38 86.66 38 87.32 38 88 C37.01 88.66 36.02 89.32 35 90 C34.56900401 92.01125036 34.56900401 92.01125036 34.671875 94.31640625 C34.67960937 95.58581055 34.67960937 95.58581055 34.6875 96.88085938 C34.7184375 98.20827148 34.7184375 98.20827148 34.75 99.5625 C34.75773437 100.89571289 34.75773437 100.89571289 34.765625 102.25585938 C34.44739345 106.45727079 34.44739345 106.45727079 36 110 C36.09575309 111.50551174 36.12188187 113.0155103 36.12025452 114.52406311 C36.12231651 115.99018791 36.12231651 115.99018791 36.12442017 117.4859314 C36.12082489 118.56702179 36.11722961 119.64811218 36.11352539 120.76196289 C36.11367142 121.8935231 36.11381744 123.02508331 36.1139679 124.19093323 C36.11326819 127.95152671 36.10547311 131.71207137 36.09765625 135.47265625 C36.09579227 138.07197543 36.09436828 140.67129497 36.09336853 143.27061462 C36.08993341 149.42588577 36.08204256 155.5811366 36.07201904 161.73640007 C36.06085694 168.74233346 36.05534721 175.74826767 36.05032361 182.75420773 C36.03985992 197.16948133 36.02226108 211.58474004 36 226 C35.34 226 34.68 226 34 226 C34 226.66 34 227.32 34 228 C33.34 228 32.68 228 32 228 C32 228.66 32 229.32 32 230 C30.71222656 230.06058594 29.42445313 230.12117187 28.09765625 230.18359375 C26.41925841 230.26798247 24.74087364 230.3526313 23.0625 230.4375 C22.21236328 230.47681641 21.36222656 230.51613281 20.48632812 230.55664062 C19.27299805 230.61948242 19.27299805 230.61948242 18.03515625 230.68359375 C17.2862915 230.72025146 16.53742676 230.75690918 15.76586914 230.79467773 C13.97538674 230.81771063 13.97538674 230.81771063 13 232 C11.48071962 232.07179964 9.95832518 232.08392007 8.4375 232.0625 C7.61121094 232.05347656 6.78492188 232.04445312 5.93359375 232.03515625 C5.29550781 232.02355469 4.65742188 232.01195312 4 232 C4 232.66 4 233.32 4 234 C2.02 234 0.04 234 -2 234 C-2 234.66 -2 235.32 -2 236 C-3.98 236 -5.96 236 -8 236 C-8 236.66 -8 237.32 -8 238 C-9.98 238 -11.96 238 -14 238 C-14 238.66 -14 239.32 -14 240 C-15.32 240 -16.64 240 -18 240 C-18 240.66 -18 241.32 -18 242 C-19.32 242 -20.64 242 -22 242 C-22 242.66 -22 243.32 -22 244 C-23.32 244 -24.64 244 -26 244 C-26 244.66 -26 245.32 -26 246 C-27.32 246 -28.64 246 -30 246 C-30 246.66 -30 247.32 -30 248 C-33.96 248 -37.92 248 -42 248 C-42 247.34 -42 246.68 -42 246 C-43.32 246 -44.64 246 -46 246 C-46 245.34 -46 244.68 -46 244 C-47.32 244 -48.64 244 -50 244 C-50 243.34 -50 242.68 -50 242 C-50.66 242 -51.32 242 -52 242 C-52 241.34 -52 240.68 -52 240 C-52.66 240 -53.32 240 -54 240 C-54 239.34 -54 238.68 -54 238 C-54.66 238 -55.32 238 -56 238 C-56 237.34 -56 236.68 -56 236 C-56.66 236 -57.32 236 -58 236 C-58 235.34 -58 234.68 -58 234 C-58.66 234 -59.32 234 -60 234 C-59.67 232.68 -59.34 231.36 -59 230 C-57.8553125 231.5159375 -57.8553125 231.5159375 -56.6875 233.0625 C-52.59381331 237.86940656 -47.43314016 240.88948622 -42 244 C-41.33226562 244.41636719 -40.66453125 244.83273438 -39.9765625 245.26171875 C-37.26260444 246.27543036 -35.74201834 245.86165592 -33 245 C-30.80273782 243.811112 -30.80273782 243.811112 -28.625 242.3125 C-23.18677286 238.92074214 -17.57448553 236.67955464 -11.61328125 234.39453125 C-8.03183471 233.01228648 -4.51939249 231.53154564 -1 230 C-1.50063965 229.42314453 -2.0012793 228.84628906 -2.51708984 228.25195312 C-7.95399001 221.7589829 -11.88015639 215.07229407 -15.625 207.5 C-19.95616116 198.80327565 -19.95616116 198.80327565 -24.796875 190.38671875 C-29.54801178 182.62668409 -33.50689954 174.41911705 -37.625 166.3125 C-39.41512726 162.80129708 -41.20761941 159.29130306 -43 155.78125 C-43.65483871 154.49762321 -43.65483871 154.49762321 -44.32290649 153.18806458 C-47.71607486 146.5411009 -51.15488072 139.91965862 -54.625 133.3125 C-58.20176485 126.49506286 -61.70040782 119.64513863 -65.125 112.75 C-69.92886649 103.08363639 -74.87244021 93.49886305 -80 84 C-80.55429688 82.96746094 -81.10859375 81.93492188 -81.6796875 80.87109375 C-88.11194527 69.48425906 -96.39477176 64.21583292 -108 59 C-108 58.67 -108 58.34 -108 58 C-106.02 58 -104.04 58 -102 58 C-102 58.66 -102 59.32 -102 60 C-100.68 60 -99.36 60 -98 60 C-98 60.66 -98 61.32 -98 62 C-96.02 62.66 -94.04 63.32 -92 64 C-92 64.66 -92 65.32 -92 66 C-91.34 66 -90.68 66 -90 66 C-90 66.66 -90 67.32 -90 68 C-89.38125 68.12375 -88.7625 68.2475 -88.125 68.375 C-86 69 -86 69 -84 71 C-84 71.99 -84 72.98 -84 74 C-83.34 74 -82.68 74 -82 74 C-82 74.66 -82 75.32 -82 76 C-81.34 76 -80.68 76 -80 76 C-80 77.32 -80 78.64 -80 80 C-79.34 80 -78.68 80 -78 80 C-78 81.32 -78 82.64 -78 84 C-77.34 84 -76.68 84 -76 84 C-76 85.32 -76 86.64 -76 88 C-75.34 88 -74.68 88 -74 88 C-74 89.32 -74 90.64 -74 92 C-73.34 92 -72.68 92 -72 92 C-72 93.32 -72 94.64 -72 96 C-71.34 96 -70.68 96 -70 96 C-70 97.32 -70 98.64 -70 100 C-69.34 100 -68.68 100 -68 100 C-68 101.32 -68 102.64 -68 104 C-67.34 104 -66.68 104 -66 104 C-66 105.32 -66 106.64 -66 108 C-65.34 108 -64.68 108 -64 108 C-64 109.32 -64 110.64 -64 112 C-63.34 112 -62.68 112 -62 112 C-60 115 -60 115 -60 118 C-59.34 118 -58.68 118 -58 118 C-58 119.32 -58 120.64 -58 122 C-57.34 122 -56.68 122 -56 122 C-55.34 124.64 -54.68 127.28 -54 130 C-53.34 130 -52.68 130 -52 130 C-52 131.32 -52 132.64 -52 134 C-51.34 134 -50.68 134 -50 134 C-50 135.32 -50 136.64 -50 138 C-49.34 138 -48.68 138 -48 138 C-48 139.32 -48 140.64 -48 142 C-47.34 142 -46.68 142 -46 142 C-46 143.32 -46 144.64 -46 146 C-45.34 146 -44.68 146 -44 146 C-44 147.32 -44 148.64 -44 150 C-43.34 150 -42.68 150 -42 150 C-42 151.32 -42 152.64 -42 154 C-41.34 154 -40.68 154 -40 154 C-40 155.32 -40 156.64 -40 158 C-39.34 158 -38.68 158 -38 158 C-38 159.32 -38 160.64 -38 162 C-37.34 162 -36.68 162 -36 162 C-36 163.32 -36 164.64 -36 166 C-35.34 166 -34.68 166 -34 166 C-32 169 -32 169 -32 172 C-31.34 172 -30.68 172 -30 172 C-30 173.32 -30 174.64 -30 176 C-29.34 176 -28.68 176 -28 176 C-28 176.66 -28 177.32 -28 178 C-27.34 178 -26.68 178 -26 178 C-26.00444122 176.95652405 -26.00888245 175.9130481 -26.01345825 174.83795166 C-26.05398461 165.00882656 -26.08397493 155.17971838 -26.10362434 145.35052872 C-26.11406585 140.29712698 -26.12823181 135.24379264 -26.15087891 130.19042969 C-26.17259411 125.31454556 -26.18456586 120.4387263 -26.18975449 115.56279755 C-26.19345261 113.70164722 -26.20067403 111.84050049 -26.21146011 109.97937775 C-26.22595741 107.37451986 -26.22797868 104.76993074 -26.22705078 102.16503906 C-26.23424133 101.39395813 -26.24143188 100.6228772 -26.24884033 99.82843018 C-26.23431382 96.06494527 -26.11217835 93.19177395 -24 90 C-24.66 90 -25.32 90 -26 90 C-26.66 89.01 -27.32 88.02 -28 87 C-30.05925139 86.27617533 -30.05925139 86.27617533 -32 86 C-32 86.66 -32 87.32 -32 88 C-38.6 88 -45.2 88 -52 88 C-52 87.34 -52 86.68 -52 86 C-52.66 86 -53.32 86 -54 86 C-54 84.02 -54 82.04 -54 80 C-53.34 80 -52.68 80 -52 80 C-51.855625 79.38125 -51.71125 78.7625 -51.5625 78.125 C-51 76 -51 76 -50 74 C-49.34 74 -48.68 74 -48 74 C-48 73.34 -48 72.68 -48 72 C-47.34 72 -46.68 72 -46 72 C-46 70.68 -46 69.36 -46 68 C-45.34 68 -44.68 68 -44 68 C-44 67.34 -44 66.68 -44 66 C-43.34 66 -42.68 66 -42 66 C-41.855625 65.38125 -41.71125 64.7625 -41.5625 64.125 C-41 62 -41 62 -40 60 C-39.34 60 -38.68 60 -38 60 C-37.855625 59.38125 -37.71125 58.7625 -37.5625 58.125 C-37 56 -37 56 -36 54 C-35.34 54 -34.68 54 -34 54 C-33.855625 53.38125 -33.71125 52.7625 -33.5625 52.125 C-33 50 -33 50 -32 48 C-31.34 48 -30.68 48 -30 48 C-29.01 45.03 -29.01 45.03 -28 42 C-27.34 42 -26.68 42 -26 42 C-26 41.34 -26 40.68 -26 40 C-25.34 40 -24.68 40 -24 40 C-24 38.68 -24 37.36 -24 36 C-23.34 36 -22.68 36 -22 36 C-22 35.34 -22 34.68 -22 34 C-21.34 34 -20.68 34 -20 34 C-20 32.68 -20 31.36 -20 30 C-19.34 30 -18.68 30 -18 30 C-18 29.34 -18 28.68 -18 28 C-17.34 28 -16.68 28 -16 28 C-16 26.68 -16 25.36 -16 24 C-15.34 24 -14.68 24 -14 24 C-14 23.34 -14 22.68 -14 22 C-13.34 22 -12.68 22 -12 22 C-11.7834375 21.071875 -11.7834375 21.071875 -11.5625 20.125 C-11 18 -11 18 -10 16 C-9.34 16 -8.68 16 -8 16 C-8 15.34 -8 14.68 -8 14 C-7.34 14 -6.68 14 -6 14 C-6 12.68 -6 11.36 -6 10 C-5.34 10 -4.68 10 -4 10 C-4 8.68 -4 7.36 -4 6 C-3.34 6 -2.68 6 -2 6 C-2 4.68 -2 3.36 -2 2 C-1.34 2 -0.68 2 0 2 C0 1.34 0 0.68 0 0 Z " fill="#010102" transform="translate(311,3)"/>
<path d="M0 0 C0.70286133 0.15919922 1.40572266 0.31839844 2.12988281 0.48242188 C5.09893278 1.01784089 7.90744696 1.19126707 10.921875 1.28125 C12.02917969 1.31863281 13.13648438 1.35601562 14.27734375 1.39453125 C16.60805857 1.46531786 18.93878802 1.53562406 21.26953125 1.60546875 C22.92275391 1.66154297 22.92275391 1.66154297 24.609375 1.71875 C26.1248291 1.76418945 26.1248291 1.76418945 27.67089844 1.81054688 C30 2 30 2 31 3 C32.84891946 3.23363881 34.70488031 3.41303635 36.5625 3.5625 C37.57441406 3.64628906 38.58632812 3.73007813 39.62890625 3.81640625 C40.80259766 3.90728516 40.80259766 3.90728516 42 4 C42 4.66 42 5.32 42 6 C45.96 6 49.92 6 54 6 C54 6.66 54 7.32 54 8 C56.64 8 59.28 8 62 8 C62 8.66 62 9.32 62 10 C63.98 10 65.96 10 68 10 C68 10.66 68 11.32 68 12 C68.721875 11.95875 69.44375 11.9175 70.1875 11.875 C73.20729369 12.00921305 75.26935729 12.75170619 78 14 C78 14.66 78 15.32 78 16 C79.32 16 80.64 16 82 16 C82 16.66 82 17.32 82 18 C83.32 18 84.64 18 86 18 C86 18.66 86 19.32 86 20 C87.32 20 88.64 20 90 20 C90 20.66 90 21.32 90 22 C90.61875 22.144375 91.2375 22.28875 91.875 22.4375 C94 23 94 23 96 24 C96 24.66 96 25.32 96 26 C97.98 26.66 99.96 27.32 102 28 C102 28.66 102 29.32 102 30 C103.32 30 104.64 30 106 30 C106 30.66 106 31.32 106 32 C106.66 32 107.32 32 108 32 C108 32.66 108 33.32 108 34 C108.59296875 34.09410156 109.1859375 34.18820312 109.796875 34.28515625 C112.49142641 35.15945219 113.46322756 36.26720318 115.25 38.4375 C116.03117187 39.36369141 116.03117187 39.36369141 116.828125 40.30859375 C118 42 118 42 118 44 C118.61875 44.144375 119.2375 44.28875 119.875 44.4375 C122 45 122 45 124 46 C124 46.66 124 47.32 124 48 C124.66 48 125.32 48 126 48 C126 48.66 126 49.32 126 50 C126.66 50 127.32 50 128 50 C128 50.66 128 51.32 128 52 C132.06024321 49.96197865 132.06024321 49.96197865 134 46 C134.66 46 135.32 46 136 46 C136 45.34 136 44.68 136 44 C136.66 44 137.32 44 138 44 C138 43.34 138 42.68 138 42 C138.66 42 139.32 42 140 42 C140 41.34 140 40.68 140 40 C140.66 40 141.32 40 142 40 C142 39.34 142 38.68 142 38 C142.66 38 143.32 38 144 38 C144 37.34 144 36.68 144 36 C144.66 36 145.32 36 146 36 C146 35.34 146 34.68 146 34 C146.66 34 147.32 34 148 34 C148 33.34 148 32.68 148 32 C148.66 32 149.32 32 150 32 C150 31.34 150 30.68 150 30 C151.32 30 152.64 30 154 30 C154 29.34 154 28.68 154 28 C154.66 28 155.32 28 156 28 C156 27.34 156 26.68 156 26 C157.32 26 158.64 26 160 26 C160 25.34 160 24.68 160 24 C161.32 24 162.64 24 164 24 C164 23.34 164 22.68 164 22 C165.28913487 21.32845067 166.58140204 20.66291141 167.875 20 C168.59429687 19.62875 169.31359375 19.2575 170.0546875 18.875 C172 18 172 18 174 18 C174 17.34 174 16.68 174 16 C175.32 16 176.64 16 178 16 C178 15.34 178 14.68 178 14 C179.98 14 181.96 14 184 14 C184 13.34 184 12.68 184 12 C185.32 12 186.64 12 188 12 C188 11.34 188 10.68 188 10 C189.98 10 191.96 10 194 10 C194 9.34 194 8.68 194 8 C195.7015625 7.7834375 195.7015625 7.7834375 197.4375 7.5625 C200.80777201 7.38828522 200.80777201 7.38828522 202 6 C204.31817089 5.67902249 206.63779357 5.48779044 208.96875 5.28125 C210.99180593 5.20934163 210.99180593 5.20934163 212 4 C213.68608966 3.92794489 215.37500659 3.91613932 217.0625 3.9375 C217.98160156 3.94652344 218.90070313 3.95554688 219.84765625 3.96484375 C220.55792969 3.97644531 221.26820313 3.98804688 222 4 C222 3.34 222 2.68 222 2 C234.54 2 247.08 2 260 2 C260 2.66 260 3.32 260 4 C260.66 4 261.32 4 262 4 C264.1519437 7.22791555 264.20086443 8.28400809 264 12 C264.66 12 265.32 12 266 12 C266 13.32 266 14.64 266 16 C266.66 16 267.32 16 268 16 C268 17.32 268 18.64 268 20 C268.66 20 269.32 20 270 20 C270 20.66 270 21.32 270 22 C270.66 22 271.32 22 272 22 C272.38063221 24.3260857 272.71269945 26.66055264 273 29 C271.1144747 30.8855253 268.42231169 30.13246689 265.91796875 30.13671875 C265.12003906 30.13285156 264.32210938 30.12898438 263.5 30.125 C262.30310547 30.13080078 262.30310547 30.13080078 261.08203125 30.13671875 C255.12660767 30.12660767 255.12660767 30.12660767 254 29 C252.50129952 28.90168854 250.99801461 28.87201544 249.49609375 28.87060547 C248.53840088 28.86745331 247.58070801 28.86430115 246.59399414 28.86105347 C245.55235107 28.8630777 244.51070801 28.86510193 243.4375 28.8671875 C242.37587646 28.86623077 241.31425293 28.86527405 240.22045898 28.86428833 C237.97086528 28.86360636 235.72126963 28.86546181 233.47167969 28.86962891 C230.01492929 28.8749769 226.55830883 28.86968446 223.1015625 28.86328125 C220.92187471 28.86394203 218.742187 28.86522318 216.5625 28.8671875 C215.52085693 28.86516327 214.47921387 28.86313904 213.40600586 28.86105347 C211.96946655 28.86578171 211.96946655 28.86578171 210.50390625 28.87060547 C209.65642822 28.87140106 208.8089502 28.87219666 207.93579102 28.87301636 C205.9934287 28.78680292 205.9934287 28.78680292 205 30 C202.64796402 30.16016386 200.29296721 30.27753239 197.9375 30.375 C192.03470429 30.6869533 187.39848451 31.58996227 182 34 C177.84995647 35.3364547 174.36783355 36.26471719 170 36 C170 36.66 170 37.32 170 38 C169.34 38 168.68 38 168 38 C168 38.66 168 39.32 168 40 C169.32 40 170.64 40 172 40 C172 39.34 172 38.68 172 38 C172.85464844 37.93941406 173.70929688 37.87882812 174.58984375 37.81640625 C175.69457031 37.73261719 176.79929687 37.64882813 177.9375 37.5625 C179.03964844 37.48128906 180.14179688 37.40007812 181.27734375 37.31640625 C183.91109903 37.29581916 183.91109903 37.29581916 185 36 C188.10042773 35.67553663 191.2020725 35.48665559 194.3125 35.28125 C196.91596752 35.29392201 196.91596752 35.29392201 198 34 C199.5906331 33.90145578 201.18561477 33.87201306 202.77929688 33.87060547 C203.797052 33.86745331 204.81480713 33.86430115 205.86340332 33.86105347 C207.52429993 33.86408981 207.52429993 33.86408981 209.21875 33.8671875 C210.34696167 33.86623077 211.47517334 33.86527405 212.63757324 33.86428833 C215.02840226 33.86360632 217.41923311 33.86546203 219.81005859 33.86962891 C223.48409151 33.87497684 227.15800217 33.86968457 230.83203125 33.86328125 C233.14843777 33.86394203 235.46484422 33.86522318 237.78125 33.8671875 C238.8885144 33.86516327 239.99577881 33.86313904 241.13659668 33.86105347 C242.15435181 33.86420563 243.17210693 33.86735779 244.22070312 33.87060547 C245.57186218 33.87179886 245.57186218 33.87179886 246.95031738 33.87301636 C249 34 249 34 250 35 C251.55836106 35.1848903 253.12240167 35.32286649 254.6875 35.4375 C258.72080314 35.79627302 262.20868637 36.50342883 266 38 C266 38.66 266 39.32 266 40 C266.66 40 267.32 40 268 40 C268 41.32 268 42.64 268 44 C268.66 44 269.32 44 270 44 C270 45.32 270 46.64 270 48 C270.66 48 271.32 48 272 48 C272 49.32 272 50.64 272 52 C272.66 52 273.32 52 274 52 C274 52.66 274 53.32 274 54 C274.66 54 275.32 54 276 54 C276 55.32 276 56.64 276 58 C276.66 58 277.32 58 278 58 C278.042721 59.66611905 278.04063832 61.33382885 278 63 C277 64 277 64 274.25 64.25 C270.59069399 63.96851492 269.06511415 62.91569635 266 61 C262.80604974 60.28598768 262.80604974 60.28598768 260 60 C260 59.34 260 58.68 260 58 C258.2675 58.0928125 258.2675 58.0928125 256.5 58.1875 C252.61775945 58.19434699 249.69366874 57.38587836 246.15234375 55.8515625 C240.48329046 53.60863397 235.19964777 52.72018163 229.125 52.4375 C222.10071942 52.10071942 222.10071942 52.10071942 221 51 C219.58882298 50.87790076 218.17179541 50.82229128 216.75561523 50.79467773 C215.85475693 50.77473251 214.95389862 50.75478729 214.02574158 50.73423767 C213.04658279 50.71752518 212.06742401 50.70081268 211.05859375 50.68359375 C209.56248314 50.6524221 209.56248314 50.6524221 208.03614807 50.62062073 C204.83667157 50.55501363 201.63711018 50.49618866 198.4375 50.4375 C196.27407961 50.39432538 194.11066794 50.35071145 191.94726562 50.30664062 C186.63160126 50.19932097 181.31585166 50.09757573 176 50 C176 50.66 176 51.32 176 52 C172.04 52 168.08 52 164 52 C164 52.66 164 53.32 164 54 C162.92878906 54.06058594 161.85757813 54.12117188 160.75390625 54.18359375 C159.35675609 54.26798537 157.95962143 54.35263406 156.5625 54.4375 C155.85544922 54.47681641 155.14839844 54.51613281 154.41992188 54.55664062 C150.91309581 54.47624438 150.91309581 54.47624438 148 56 C146.00041636 56.04080783 143.99954746 56.04254356 142 56 C142 56.66 142 57.32 142 58 C135.38190423 60.46254726 128.99560484 60.18935472 122 60 C122 59.34 122 58.68 122 58 C120.68 58 119.36 58 118 58 C118 57.34 118 56.68 118 56 C116.82630859 56.01740234 116.82630859 56.01740234 115.62890625 56.03515625 C114.61699219 56.04417969 113.60507813 56.05320312 112.5625 56.0625 C111.55316406 56.07410156 110.54382813 56.08570313 109.50390625 56.09765625 C107 56 107 56 106 55 C104.33795513 54.79224439 102.66970509 54.63281745 101 54.5 C96.11111111 54.11111111 96.11111111 54.11111111 95 53 C92.47403741 52.76346477 89.96892793 52.57826308 87.4375 52.4375 C86.72658203 52.39431641 86.01566406 52.35113281 85.28320312 52.30664062 C83.52238088 52.20028223 81.7612168 52.09961154 80 52 C80 51.34 80 50.68 80 50 C73.60947614 50.11730201 67.21913192 50.24213771 60.82885742 50.37231445 C58.65311047 50.41573507 56.47732786 50.45740471 54.30151367 50.49731445 C51.18136832 50.55484502 48.06140367 50.61858823 44.94140625 50.68359375 C43.96224747 50.70030624 42.98308868 50.71701874 41.97425842 50.73423767 C40.62297096 50.7641555 40.62297096 50.7641555 39.24438477 50.79467773 C38.04858543 50.81799416 38.04858543 50.81799416 36.82862854 50.84178162 C34.98148618 50.80400665 34.98148618 50.80400665 34 52 C30.89957227 52.32446337 27.7979275 52.51334441 24.6875 52.71875 C22.08403248 52.70607799 22.08403248 52.70607799 21 54 C18.68182911 54.32097751 16.36220643 54.51220956 14.03125 54.71875 C12.00819407 54.79065837 12.00819407 54.79065837 11 56 C8.66702567 56.04092937 6.33294775 56.04241723 4 56 C4 56.66 4 57.32 4 58 C1.36 58 -1.28 58 -4 58 C-4 58.66 -4 59.32 -4 60 C-5.98 60 -7.96 60 -10 60 C-10 60.66 -10 61.32 -10 62 C-11.4774746 62.36116046 -12.95704675 62.71375048 -14.4375 63.0625 C-15.67306641 63.35833984 -15.67306641 63.35833984 -16.93359375 63.66015625 C-17.61550781 63.77230469 -18.29742187 63.88445312 -19 64 C-20 63 -20 63 -20.1875 59.6875 C-20.01798052 56.35361682 -19.75557129 54.74308013 -18 52 C-17.34 52 -16.68 52 -16 52 C-16 50.68 -16 49.36 -16 48 C-15.34 48 -14.68 48 -14 48 C-14 46.68 -14 45.36 -14 44 C-13.34 44 -12.68 44 -12 44 C-11.87625 43.38125 -11.7525 42.7625 -11.625 42.125 C-11 40 -11 40 -9 38 C-6.375 37.875 -6.375 37.875 -4 38 C-4 37.34 -4 36.68 -4 36 C-3.28972656 35.93941406 -2.57945313 35.87882812 -1.84765625 35.81640625 C-0.92855469 35.73261719 -0.00945312 35.64882813 0.9375 35.5625 C1.85402344 35.48128906 2.77054688 35.40007812 3.71484375 35.31640625 C5.96159732 35.23955024 5.96159732 35.23955024 7 34 C8.68255235 33.9012483 10.36924028 33.87201096 12.0546875 33.87060547 C13.67141357 33.86587723 13.67141357 33.86587723 15.32080078 33.86105347 C16.49368652 33.8630777 17.66657227 33.86510193 18.875 33.8671875 C20.0697998 33.86623077 21.26459961 33.86527405 22.49560547 33.86428833 C25.0276698 33.86360629 27.55973588 33.86546222 30.09179688 33.86962891 C33.9831126 33.87497679 37.87431289 33.86968467 41.765625 33.86328125 C44.21875026 33.86394203 46.67187544 33.86522318 49.125 33.8671875 C50.29788574 33.86516327 51.47077148 33.86313904 52.67919922 33.86105347 C53.7570166 33.86420563 54.83483398 33.86735779 55.9453125 33.87060547 C56.89937988 33.87140106 57.85344727 33.87219666 58.83642578 33.87301636 C61 34 61 34 62 35 C64.16296273 35.20931897 66.3309471 35.36797069 68.5 35.5 C74.88888889 35.88888889 74.88888889 35.88888889 76 37 C77.68183948 37.23287008 79.3712416 37.41264166 81.0625 37.5625 C81.98160156 37.64628906 82.90070313 37.73007812 83.84765625 37.81640625 C84.91306641 37.90728516 84.91306641 37.90728516 86 38 C86 37.34 86 36.68 86 36 C84.02 36 82.04 36 80 36 C80 35.34 80 34.68 80 34 C78.02 34 76.04 34 74 34 C74 33.34 74 32.68 74 32 C71.36 32 68.72 32 66 32 C66 31.34 66 30.68 66 30 C64.78441406 30.01160156 63.56882812 30.02320313 62.31640625 30.03515625 C60.73177236 30.04453278 59.14713682 30.05363313 57.5625 30.0625 C56.76005859 30.07087891 55.95761719 30.07925781 55.13085938 30.08789062 C53.08704779 30.0965143 51.04316098 30.0522815 49 30 C48.67 29.67 48.34 29.34 48 29 C46.37420782 28.87718048 44.74322996 28.82217496 43.11303711 28.79467773 C42.07203354 28.77473251 41.03102997 28.75478729 39.95848083 28.73423767 C38.8262056 28.71752518 37.69393036 28.70081268 36.52734375 28.68359375 C35.37456436 28.66281265 34.22178497 28.64203156 33.03407288 28.62062073 C29.33527843 28.55500036 25.63641041 28.49618245 21.9375 28.4375 C19.43684121 28.39432665 16.93618999 28.35071276 14.43554688 28.30664062 C8.29044338 28.19930632 2.14526596 28.09756357 -4 28 C-4 28.66 -4 29.32 -4 30 C-7.96 30 -11.92 30 -16 30 C-16 27.36 -16 24.72 -16 22 C-15.34 22 -14.68 22 -14 22 C-13.34 20.02 -12.68 18.04 -12 16 C-11.34 16 -10.68 16 -10 16 C-10 14.68 -10 13.36 -10 12 C-9.34 12 -8.68 12 -8 12 C-7.855625 11.236875 -7.71125 10.47375 -7.5625 9.6875 C-7 7 -7 7 -6 4 C-5.34 4 -4.68 4 -4 4 C-4 3.34 -4 2.68 -4 2 C-2.68 2 -1.36 2 0 2 C0 1.34 0 0.68 0 0 Z M88 38 C88 38.66 88 39.32 88 40 C88.66 40 89.32 40 90 40 C90 39.34 90 38.68 90 38 C89.34 38 88.68 38 88 38 Z " fill="#EFEFEF" transform="translate(113,237)"/>
<path d="M0 0 C2.78408813 -0.36076355 2.78408813 -0.36076355 6.37744141 -0.34057617 C7.03122269 -0.34101425 7.68500397 -0.34145233 8.3585968 -0.34190369 C10.52322075 -0.33981081 12.6870736 -0.3164578 14.8515625 -0.29296875 C16.35085629 -0.28737453 17.85015556 -0.28310361 19.34945679 -0.28010559 C23.29845277 -0.26864298 27.24711852 -0.239164 31.19598389 -0.20599365 C35.22436047 -0.17532305 39.25279035 -0.16160672 43.28125 -0.14648438 C51.18765167 -0.11429532 59.09378477 -0.06308227 67 0 C67.495 0.99 67.495 0.99 68 2 C49.19 2 30.38 2 11 2 C14.96 3.98 18.92 5.96 23 8 C33.0403402 15.82364172 39.00091108 25.44001434 44.6875 36.6875 C45.72119852 38.69929873 46.75505771 40.71101491 47.7890625 42.72265625 C48.57651855 44.26397217 48.57651855 44.26397217 49.37988281 45.83642578 C52.08188716 51.11258196 54.82246316 56.36852546 57.5625 61.625 C58.06289795 62.59010498 58.5632959 63.55520996 59.07885742 64.54956055 C59.54912354 65.45359619 60.01938965 66.35763184 60.50390625 67.2890625 C60.91455322 68.08006348 61.3252002 68.87106445 61.74829102 69.68603516 C63.01440752 72.09672191 63.01440752 72.09672191 64.71850586 74.66943359 C65.14139893 75.43852051 65.56429199 76.20760742 66 77 C65.67 77.66 65.34 78.32 65 79 C64.67 78.01 64.34 77.02 64 76 C63.34 76 62.68 76 62 76 C61.67 75.34 61.34 74.68 61 74 C60.67 110.3 60.34 146.6 60 184 C59.34 184 58.68 184 58 184 C58 184.66 58 185.32 58 186 C55.36 186 52.72 186 50 186 C50 185.34 50 184.68 50 184 C48.68 184 47.36 184 46 184 C46 183.34 46 182.68 46 182 C44.68 182 43.36 182 42 182 C42 181.34 42 180.68 42 180 C40.02 180 38.04 180 36 180 C36 179.34 36 178.68 36 178 C34.02 178 32.04 178 30 178 C30 177.34 30 176.68 30 176 C27.36 176 24.72 176 22 176 C22 175.34 22 174.68 22 174 C20.74703125 174.02320313 19.4940625 174.04640625 18.203125 174.0703125 C16.5520893 174.08907427 14.90104715 174.10727403 13.25 174.125 C12.0125 174.15013672 12.0125 174.15013672 10.75 174.17578125 C9.95078125 174.18222656 9.1515625 174.18867188 8.328125 174.1953125 C7.5949707 174.20578613 6.86181641 174.21625977 6.10644531 174.22705078 C3.65155658 173.96244177 2.08829048 173.30532227 0 172 C-2.17369837 168.17015049 -1.84217205 166.16626694 -1 162 C-0.9014009 159.85237917 -0.85404644 157.70213991 -0.84178162 155.55229187 C-0.8319928 154.24963882 -0.82220398 152.94698578 -0.81211853 151.6048584 C-0.80621507 150.1684574 -0.80040458 148.73205601 -0.79467773 147.2956543 C-0.78509386 145.77769202 -0.77508348 144.25973239 -0.76467896 142.74177551 C-0.73767905 138.62651728 -0.71664292 134.51124764 -0.69667697 130.39595008 C-0.67478706 126.09311333 -0.64741309 121.79031156 -0.62062073 117.48750305 C-0.57073445 109.34201624 -0.52578055 101.19650997 -0.48259836 93.05098516 C-0.43319123 83.77653649 -0.378286 74.50212292 -0.32291877 65.22770822 C-0.20916113 46.15183808 -0.10230857 27.07593481 0 8 C-0.66 8 -1.32 8 -2 8 C-2.20086443 4.28400809 -2.1519437 3.22791555 0 0 Z " fill="#2A2B75" transform="translate(135,59)"/>
<path d="M0 0 C0.99 0 1.98 0 3 0 C3 0.66 3 1.32 3 2 C3.66 2 4.32 2 5 2 C5 2.66 5 3.32 5 4 C5.66 4 6.32 4 7 4 C7 5.32 7 6.64 7 8 C7.66 8 8.32 8 9 8 C9 8.66 9 9.32 9 10 C9.66 10 10.32 10 11 10 C11 11.32 11 12.64 11 14 C11.66 14 12.32 14 13 14 C15 17 15 17 15 20 C15.66 20 16.32 20 17 20 C17 20.66 17 21.32 17 22 C17.66 22 18.32 22 19 22 C19 23.32 19 24.64 19 26 C19.66 26 20.32 26 21 26 C21 26.66 21 27.32 21 28 C21.66 28 22.32 28 23 28 C23 29.32 23 30.64 23 32 C23.66 32 24.32 32 25 32 C25 32.66 25 33.32 25 34 C25.66 34 26.32 34 27 34 C27 35.32 27 36.64 27 38 C27.66 38 28.32 38 29 38 C29 38.66 29 39.32 29 40 C29.66 40 30.32 40 31 40 C31 41.32 31 42.64 31 44 C31.66 44 32.32 44 33 44 C33 44.66 33 45.32 33 46 C33.66 46 34.32 46 35 46 C35.99 48.97 35.99 48.97 37 52 C37.66 52 38.32 52 39 52 C41 55 41 55 41 58 C41.66 58 42.32 58 43 58 C43 58.66 43 59.32 43 60 C43.66 60 44.32 60 45 60 C45 61.32 45 62.64 45 64 C45.66 64 46.32 64 47 64 C47 64.66 47 65.32 47 66 C47.66 66 48.32 66 49 66 C49 67.32 49 68.64 49 70 C49.66 70 50.32 70 51 70 C51 70.66 51 71.32 51 72 C51.66 72 52.32 72 53 72 C53 73.32 53 74.64 53 76 C53.66 76 54.32 76 55 76 C55 76.66 55 77.32 55 78 C55.66 78 56.32 78 57 78 C57 78.66 57 79.32 57 80 C57.66 80 58.32 80 59 80 C59.125 82.875 59.125 82.875 59 86 C56.56286881 88.43713119 55.91066206 88.2562288 52.5703125 88.265625 C51.25353516 88.26949219 51.25353516 88.26949219 49.91015625 88.2734375 C48.99105469 88.26570313 48.07195312 88.25796875 47.125 88.25 C46.21363281 88.25773437 45.30226563 88.26546875 44.36328125 88.2734375 C43.48285156 88.27085938 42.60242188 88.26828125 41.6953125 88.265625 C40.89109863 88.26336914 40.08688477 88.26111328 39.25830078 88.25878906 C36.78464659 87.97532166 35.14402046 87.23549563 33 86 C33 86.66 33 87.32 33 88 C32.01 88.66 31.02 89.32 30 90 C29.56900401 92.01125036 29.56900401 92.01125036 29.671875 94.31640625 C29.67960937 95.58581055 29.67960937 95.58581055 29.6875 96.88085938 C29.7184375 98.20827148 29.7184375 98.20827148 29.75 99.5625 C29.75773437 100.89571289 29.75773437 100.89571289 29.765625 102.25585938 C29.44739345 106.45727079 29.44739345 106.45727079 31 110 C31.09575309 111.50551174 31.12188187 113.0155103 31.12025452 114.52406311 C31.12231651 115.99018791 31.12231651 115.99018791 31.12442017 117.4859314 C31.12082489 118.56702179 31.11722961 119.64811218 31.11352539 120.76196289 C31.11367142 121.8935231 31.11381744 123.02508331 31.1139679 124.19093323 C31.11326819 127.95152671 31.10547311 131.71207137 31.09765625 135.47265625 C31.09579227 138.07197543 31.09436828 140.67129497 31.09336853 143.27061462 C31.08993341 149.42588577 31.08204256 155.5811366 31.07201904 161.73640007 C31.06085694 168.74233346 31.05534721 175.74826767 31.05032361 182.75420773 C31.03985992 197.16948133 31.02226108 211.58474004 31 226 C30.34 226 29.68 226 29 226 C29 226.66 29 227.32 29 228 C28.34 228 27.68 228 27 228 C27 228.66 27 229.32 27 230 C25.71222656 230.06058594 24.42445313 230.12117187 23.09765625 230.18359375 C21.41925841 230.26798247 19.74087364 230.3526313 18.0625 230.4375 C17.21236328 230.47681641 16.36222656 230.51613281 15.48632812 230.55664062 C14.27299805 230.61948242 14.27299805 230.61948242 13.03515625 230.68359375 C12.2862915 230.72025146 11.53742676 230.75690918 10.76586914 230.79467773 C8.97538674 230.81771063 8.97538674 230.81771063 8 232 C6.48071962 232.07179964 4.95832518 232.08392007 3.4375 232.0625 C2.61121094 232.05347656 1.78492188 232.04445312 0.93359375 232.03515625 C0.29550781 232.02355469 -0.34257812 232.01195312 -1 232 C-1 232.66 -1 233.32 -1 234 C-2.98 234 -4.96 234 -7 234 C-7 234.66 -7 235.32 -7 236 C-8.98 236 -10.96 236 -13 236 C-13 236.66 -13 237.32 -13 238 C-14.98 238 -16.96 238 -19 238 C-19 238.66 -19 239.32 -19 240 C-20.32 240 -21.64 240 -23 240 C-23 240.66 -23 241.32 -23 242 C-24.32 242 -25.64 242 -27 242 C-27 242.66 -27 243.32 -27 244 C-28.32 244 -29.64 244 -31 244 C-31 244.66 -31 245.32 -31 246 C-32.32 246 -33.64 246 -35 246 C-35 246.66 -35 247.32 -35 248 C-38.96 248 -42.92 248 -47 248 C-47 247.34 -47 246.68 -47 246 C-48.32 246 -49.64 246 -51 246 C-51 245.34 -51 244.68 -51 244 C-52.32 244 -53.64 244 -55 244 C-55 243.34 -55 242.68 -55 242 C-55.66 242 -56.32 242 -57 242 C-57 241.34 -57 240.68 -57 240 C-57.66 240 -58.32 240 -59 240 C-59 239.34 -59 238.68 -59 238 C-59.66 238 -60.32 238 -61 238 C-61 237.34 -61 236.68 -61 236 C-61.66 236 -62.32 236 -63 236 C-63 235.34 -63 234.68 -63 234 C-63.66 234 -64.32 234 -65 234 C-64.67 232.68 -64.34 231.36 -64 230 C-62.8553125 231.5159375 -62.8553125 231.5159375 -61.6875 233.0625 C-57.59381331 237.86940656 -52.43314016 240.88948622 -47 244 C-46.33226562 244.41636719 -45.66453125 244.83273438 -44.9765625 245.26171875 C-42.26260444 246.27543036 -40.74201834 245.86165592 -38 245 C-35.80273782 243.811112 -35.80273782 243.811112 -33.625 242.3125 C-28.18677286 238.92074214 -22.57448553 236.67955464 -16.61328125 234.39453125 C-13.03183471 233.01228648 -9.51939249 231.53154564 -6 230 C-6.50063965 229.42314453 -7.0012793 228.84628906 -7.51708984 228.25195312 C-12.95399001 221.7589829 -16.88015639 215.07229407 -20.625 207.5 C-24.95616116 198.80327565 -24.95616116 198.80327565 -29.796875 190.38671875 C-34.54801178 182.62668409 -38.50689954 174.41911705 -42.625 166.3125 C-44.41512726 162.80129708 -46.20761941 159.29130306 -48 155.78125 C-48.65483871 154.49762321 -48.65483871 154.49762321 -49.32290649 153.18806458 C-52.71607486 146.5411009 -56.15488072 139.91965862 -59.625 133.3125 C-63.20176485 126.49506286 -66.70040782 119.64513863 -70.125 112.75 C-74.92886649 103.08363639 -79.87244021 93.49886305 -85 84 C-85.55429688 82.96746094 -86.10859375 81.93492188 -86.6796875 80.87109375 C-93.11194527 69.48425906 -101.39477176 64.21583292 -113 59 C-113 58.67 -113 58.34 -113 58 C-111.02 58 -109.04 58 -107 58 C-107 58.66 -107 59.32 -107 60 C-105.68 60 -104.36 60 -103 60 C-103 60.66 -103 61.32 -103 62 C-101.02 62.66 -99.04 63.32 -97 64 C-97 64.66 -97 65.32 -97 66 C-96.34 66 -95.68 66 -95 66 C-95 66.66 -95 67.32 -95 68 C-94.38125 68.12375 -93.7625 68.2475 -93.125 68.375 C-91 69 -91 69 -89 71 C-89 71.99 -89 72.98 -89 74 C-88.34 74 -87.68 74 -87 74 C-87 74.66 -87 75.32 -87 76 C-86.34 76 -85.68 76 -85 76 C-85 77.32 -85 78.64 -85 80 C-84.34 80 -83.68 80 -83 80 C-83 81.32 -83 82.64 -83 84 C-82.34 84 -81.68 84 -81 84 C-81 85.32 -81 86.64 -81 88 C-80.34 88 -79.68 88 -79 88 C-79 89.32 -79 90.64 -79 92 C-78.34 92 -77.68 92 -77 92 C-77 93.32 -77 94.64 -77 96 C-76.34 96 -75.68 96 -75 96 C-75 97.32 -75 98.64 -75 100 C-74.34 100 -73.68 100 -73 100 C-73 101.32 -73 102.64 -73 104 C-72.34 104 -71.68 104 -71 104 C-71 105.32 -71 106.64 -71 108 C-70.34 108 -69.68 108 -69 108 C-69 109.32 -69 110.64 -69 112 C-68.34 112 -67.68 112 -67 112 C-65 115 -65 115 -65 118 C-64.34 118 -63.68 118 -63 118 C-63 119.32 -63 120.64 -63 122 C-62.34 122 -61.68 122 -61 122 C-60.34 124.64 -59.68 127.28 -59 130 C-58.34 130 -57.68 130 -57 130 C-57 131.32 -57 132.64 -57 134 C-56.34 134 -55.68 134 -55 134 C-55 135.32 -55 136.64 -55 138 C-54.34 138 -53.68 138 -53 138 C-53 139.32 -53 140.64 -53 142 C-52.34 142 -51.68 142 -51 142 C-51 143.32 -51 144.64 -51 146 C-50.34 146 -49.68 146 -49 146 C-49 147.32 -49 148.64 -49 150 C-48.34 150 -47.68 150 -47 150 C-47 151.32 -47 152.64 -47 154 C-46.34 154 -45.68 154 -45 154 C-45 155.32 -45 156.64 -45 158 C-44.34 158 -43.68 158 -43 158 C-43 159.32 -43 160.64 -43 162 C-42.34 162 -41.68 162 -41 162 C-41 163.32 -41 164.64 -41 166 C-40.34 166 -39.68 166 -39 166 C-37 169 -37 169 -37 172 C-36.34 172 -35.68 172 -35 172 C-35 173.32 -35 174.64 -35 176 C-34.34 176 -33.68 176 -33 176 C-33 176.66 -33 177.32 -33 178 C-32.34 178 -31.68 178 -31 178 C-31 150.28 -31 122.56 -31 94 C-30.34 94.33 -29.68 94.66 -29 95 C-29.00785522 96.48219025 -29.00785522 96.48219025 -29.01586914 97.99432373 C-29.06019956 107.35031221 -29.06205603 116.70549591 -29.02334595 126.06151962 C-29.00478614 130.87060094 -29.0006943 135.67875033 -29.03076172 140.48779297 C-29.05928122 145.13731414 -29.0483662 149.78528703 -29.01119995 154.43473053 C-29.00380822 156.19994045 -29.01013501 157.96526792 -29.03103638 159.73036957 C-29.16030133 171.6348417 -27.97437031 178.67883803 -20 188 C-19.17284506 189.10752432 -18.34898427 190.21753312 -17.53125 191.33203125 C-5.40667369 206.13800425 7.70226395 213.85580711 27 216 C27 172.44 27 128.88 27 84 C36.57 83.67 46.14 83.34 56 83 C50.36587607 74.78356926 44.7137434 66.58159122 39.01245117 58.41162109 C33.6378322 50.70793733 28.27155506 43.00504589 23.09985352 35.16333008 C20.15993843 30.71463762 17.1705187 26.30106871 14.16796875 21.89453125 C13.73576523 21.25979385 13.30356171 20.62505646 12.85826111 19.97108459 C11.0895257 17.37387272 9.32060162 14.77680592 7.54721069 12.18276978 C6.29771713 10.35496282 5.05098414 8.52530017 3.8046875 6.6953125 C3.07233887 5.62297363 2.33999023 4.55063477 1.58544922 3.44580078 C0 1 0 1 0 0 Z " fill="#262451" transform="translate(316,3)"/>
<path d="M0 0 C0.70286133 0.15919922 1.40572266 0.31839844 2.12988281 0.48242188 C5.09893278 1.01784089 7.90744696 1.19126707 10.921875 1.28125 C12.58283203 1.33732422 12.58283203 1.33732422 14.27734375 1.39453125 C16.60805857 1.46531786 18.93878802 1.53562406 21.26953125 1.60546875 C22.92275391 1.66154297 22.92275391 1.66154297 24.609375 1.71875 C26.1248291 1.76418945 26.1248291 1.76418945 27.67089844 1.81054688 C30 2 30 2 31 3 C32.84891946 3.23363881 34.70488031 3.41303635 36.5625 3.5625 C37.57441406 3.64628906 38.58632812 3.73007813 39.62890625 3.81640625 C40.80259766 3.90728516 40.80259766 3.90728516 42 4 C42 4.66 42 5.32 42 6 C45.96 6 49.92 6 54 6 C54 6.66 54 7.32 54 8 C56.64 8 59.28 8 62 8 C62 8.66 62 9.32 62 10 C63.98 10 65.96 10 68 10 C68 10.66 68 11.32 68 12 C68.721875 11.95875 69.44375 11.9175 70.1875 11.875 C73.20729369 12.00921305 75.26935729 12.75170619 78 14 C78 14.66 78 15.32 78 16 C79.32 16 80.64 16 82 16 C82 16.66 82 17.32 82 18 C83.32 18 84.64 18 86 18 C86 18.66 86 19.32 86 20 C87.32 20 88.64 20 90 20 C90 20.66 90 21.32 90 22 C90.61875 22.144375 91.2375 22.28875 91.875 22.4375 C94 23 94 23 96 24 C96 24.66 96 25.32 96 26 C97.98 26.66 99.96 27.32 102 28 C102 28.66 102 29.32 102 30 C103.32 30 104.64 30 106 30 C106 30.66 106 31.32 106 32 C106.66 32 107.32 32 108 32 C108 32.66 108 33.32 108 34 C108.8971875 34.15082031 108.8971875 34.15082031 109.8125 34.3046875 C114.74135197 35.87135831 117.73868196 41.33763681 120.125 45.6875 C121.83061646 48.70075574 123.4378505 50.71236652 126 53 C125.67 53.66 125.34 54.32 125 55 C124.3915625 54.5153125 123.783125 54.030625 123.15625 53.53125 C111.67199904 44.74917573 98.98135856 39.07021666 85.42578125 34.2265625 C83.41759034 33.5075523 81.41956587 32.75607523 79.453125 31.9296875 C53.76999532 22.19627211 20.89157691 22.79765824 -5.734375 27.34375 C-9.19220368 27.92765775 -12.48422983 28.13609433 -16 28 C-16 26.02 -16 24.04 -16 22 C-15.34 22 -14.68 22 -14 22 C-13.34 20.02 -12.68 18.04 -12 16 C-11.34 16 -10.68 16 -10 16 C-10 14.68 -10 13.36 -10 12 C-9.34 12 -8.68 12 -8 12 C-7.855625 11.236875 -7.71125 10.47375 -7.5625 9.6875 C-7 7 -7 7 -6 4 C-5.34 4 -4.68 4 -4 4 C-4 3.34 -4 2.68 -4 2 C-2.68 2 -1.36 2 0 2 C0 1.34 0 0.68 0 0 Z " fill="#0A0909" transform="translate(113,237)"/>
<path d="M0 0 C4.83741072 -0.32338703 9.66845939 -0.55803078 14.51416016 -0.71411133 C16.15817831 -0.77918099 17.80145253 -0.86768697 19.44287109 -0.98071289 C30.33712603 -1.71162678 30.33712603 -1.71162678 35 0 C38.97113804 3.89565302 40.81430827 7.87737645 43 13 C44.14514846 15.07452461 45.30834198 17.13933777 46.5 19.1875 C49 23.7287234 49 23.7287234 49 26 C46.95809019 25.85761163 44.91647955 25.71092972 42.875 25.5625 C41.73804688 25.48128906 40.60109375 25.40007812 39.4296875 25.31640625 C36 25 36 25 33.39135742 24.49291992 C29.01469575 23.85679006 24.72580764 23.81802786 20.30859375 23.796875 C18.89780296 23.78832489 18.89780296 23.78832489 17.45851135 23.77960205 C15.46397007 23.77017291 13.46941335 23.76362637 11.47485352 23.75976562 C8.49921185 23.75019841 5.52430381 23.71921462 2.54882812 23.6875 C-15.17748866 23.5868918 -32.37434576 25.18140704 -49.3125 30.6875 C-50.40570557 31.03417725 -51.49891113 31.38085449 -52.62524414 31.73803711 C-65.10160254 35.8243095 -76.14308548 41.3797433 -86.9609375 48.84765625 C-87.63382813 49.22792969 -88.30671875 49.60820312 -89 50 C-89.66 49.67 -90.32 49.34 -91 49 C-89.625 46.5 -89.625 46.5 -88 44 C-87.34 44 -86.68 44 -86 44 C-86 43.34 -86 42.68 -86 42 C-85.34 42 -84.68 42 -84 42 C-84 41.34 -84 40.68 -84 40 C-83.34 40 -82.68 40 -82 40 C-82 39.34 -82 38.68 -82 38 C-81.34 38 -80.68 38 -80 38 C-80 37.34 -80 36.68 -80 36 C-79.34 36 -78.68 36 -78 36 C-78 35.34 -78 34.68 -78 34 C-77.34 34 -76.68 34 -76 34 C-76 33.34 -76 32.68 -76 32 C-75.34 32 -74.68 32 -74 32 C-74 31.34 -74 30.68 -74 30 C-73.34 30 -72.68 30 -72 30 C-72 29.34 -72 28.68 -72 28 C-70.68 28 -69.36 28 -68 28 C-68 27.34 -68 26.68 -68 26 C-67.34 26 -66.68 26 -66 26 C-66 25.34 -66 24.68 -66 24 C-64.68 24 -63.36 24 -62 24 C-62 23.34 -62 22.68 -62 22 C-60.68 22 -59.36 22 -58 22 C-58 21.34 -58 20.68 -58 20 C-56.71086513 19.32845067 -55.41859796 18.66291141 -54.125 18 C-53.40570313 17.62875 -52.68640625 17.2575 -51.9453125 16.875 C-50 16 -50 16 -48 16 C-48 15.34 -48 14.68 -48 14 C-46.68 14 -45.36 14 -44 14 C-44 13.34 -44 12.68 -44 12 C-42.02 12 -40.04 12 -38 12 C-38 11.34 -38 10.68 -38 10 C-36.68 10 -35.36 10 -34 10 C-34 9.34 -34 8.68 -34 8 C-32.02 8 -30.04 8 -28 8 C-28 7.34 -28 6.68 -28 6 C-26.865625 5.855625 -25.73125 5.71125 -24.5625 5.5625 C-21.19222799 5.38828522 -21.19222799 5.38828522 -20 4 C-17.68182911 3.67902249 -15.36220643 3.48779044 -13.03125 3.28125 C-11.00819407 3.20934163 -11.00819407 3.20934163 -10 2 C-8.31391034 1.92794489 -6.62499341 1.91613932 -4.9375 1.9375 C-4.01839844 1.94652344 -3.09929687 1.95554688 -2.15234375 1.96484375 C-1.44207031 1.97644531 -0.73179687 1.98804688 0 2 C0 1.34 0 0.68 0 0 Z " fill="#090909" transform="translate(335,239)"/>
<path d="M0 0 C1.01775513 -0.00315216 2.03551025 -0.00630432 3.08410645 -0.009552 C4.19137085 -0.00752777 5.29863525 -0.00550354 6.43945312 -0.00341797 C7.56766479 -0.00437469 8.69587646 -0.00533142 9.85827637 -0.00631714 C12.24910538 -0.00699915 14.63993624 -0.00514344 17.03076172 -0.00097656 C20.70479464 0.00437137 24.37870529 -0.0009209 28.05273438 -0.00732422 C30.3691409 -0.00666344 32.68554734 -0.00538229 35.00195312 -0.00341797 C36.10921753 -0.0054422 37.21648193 -0.00746643 38.3572998 -0.009552 C39.8839325 -0.00482376 39.8839325 -0.00482376 41.44140625 0 C42.79256531 0.00119339 42.79256531 0.00119339 44.17102051 0.00241089 C46.22070312 0.12939453 46.22070312 0.12939453 47.22070312 1.12939453 C49.67256629 1.33371646 52.12212455 1.44846822 54.58007812 1.55517578 C58.18808508 2.33975717 59.6209424 3.47285276 62.22070312 6.12939453 C64.20780085 9.23263841 65.87644838 12.46542955 67.53320312 15.75439453 C67.98759766 16.62580078 68.44199219 17.49720703 68.91015625 18.39501953 C72.22070312 24.82693917 72.22070312 24.82693917 72.22070312 27.12939453 C71.6718042 26.94111084 71.12290527 26.75282715 70.55737305 26.55883789 C58.21616134 22.37766952 45.65604477 19.25192604 32.84570312 16.87939453 C31.97985596 16.71640869 31.11400879 16.55342285 30.22192383 16.38549805 C6.64878642 12.20119386 -18.99559329 12.43800058 -42.59179688 16.37939453 C-43.81624512 16.58387207 -45.04069336 16.78834961 -46.30224609 16.99902344 C-53.69731638 18.34127587 -60.7586453 20.19193259 -67.92260742 22.44873047 C-70.77929688 23.12939453 -70.77929688 23.12939453 -73.77929688 22.12939453 C-63.78570414 17.1701238 -53.80637613 12.23863472 -43.27929688 8.50439453 C-42.59295166 8.25737793 -41.90660645 8.01036133 -41.19946289 7.75585938 C-37.62372516 6.53635968 -34.56010368 5.8531048 -30.77929688 6.12939453 C-30.77929688 5.46939453 -30.77929688 4.80939453 -30.77929688 4.12939453 C-29.92464844 4.06880859 -29.07 4.00822266 -28.18945312 3.94580078 C-27.08472656 3.86201172 -25.98 3.77822266 -24.84179688 3.69189453 C-23.73964844 3.61068359 -22.6375 3.52947266 -21.50195312 3.44580078 C-18.86819785 3.42521369 -18.86819785 3.42521369 -17.77929688 2.12939453 C-14.67886914 1.80493116 -11.57722438 1.61605012 -8.46679688 1.41064453 C-5.20088623 1.06886318 -3.53986148 0.00312653 0 0 Z " fill="#0B0B0B" transform="translate(315.779296875,270.87060546875)"/>
<path d="M0 0 C1.61672607 -0.00472824 1.61672607 -0.00472824 3.26611328 -0.009552 C4.43899902 -0.00752777 5.61188477 -0.00550354 6.8203125 -0.00341797 C8.0151123 -0.00437469 9.20991211 -0.00533142 10.44091797 -0.00631714 C12.9729823 -0.00699918 15.50504838 -0.00514325 18.03710938 -0.00097656 C21.9284251 0.00437132 25.81962539 -0.00092079 29.7109375 -0.00732422 C32.16406276 -0.00666344 34.61718794 -0.00538229 37.0703125 -0.00341797 C38.24319824 -0.0054422 39.41608398 -0.00746643 40.62451172 -0.009552 C41.7023291 -0.00639984 42.78014648 -0.00324768 43.890625 0 C44.84469238 0.00079559 45.79875977 0.00159119 46.78173828 0.00241089 C48.9453125 0.12939453 48.9453125 0.12939453 49.9453125 1.12939453 C52.12824024 1.36421146 54.31734424 1.54302776 56.5078125 1.69189453 C57.70535156 1.77568359 58.90289062 1.85947266 60.13671875 1.94580078 C61.06355469 2.00638672 61.99039063 2.06697266 62.9453125 2.12939453 C63.4403125 3.61439453 63.4403125 3.61439453 63.9453125 5.12939453 C64.55334717 5.16460205 65.16138184 5.19980957 65.7878418 5.23608398 C72.19891916 5.72517395 77.74076971 7.09787688 83.7578125 9.31689453 C85.05658325 9.78337402 85.05658325 9.78337402 86.3815918 10.25927734 C93.43562183 12.83773287 100.18854338 15.85037422 106.9453125 19.12939453 C109.26771652 20.15899365 111.60189051 21.14842719 113.9453125 22.12939453 C109.48565754 23.53193352 106.08547257 22.21960871 101.7578125 20.87939453 C92.91191341 18.28041603 84.08485183 16.38496886 74.9453125 15.12939453 C74.26291504 15.03295654 73.58051758 14.93651855 72.87744141 14.8371582 C64.8907574 13.87170652 56.86695939 13.94330906 48.83447266 13.9440918 C46.34650232 13.94191742 43.85898536 13.92374099 41.37109375 13.90478516 C16.09203964 13.81598267 -8.19401187 18.95417944 -32.0546875 27.12939453 C-32.25609226 23.50410886 -31.91245515 21.26437745 -30.0546875 18.12939453 C-29.3946875 18.12939453 -28.7346875 18.12939453 -28.0546875 18.12939453 C-28.0546875 16.80939453 -28.0546875 15.48939453 -28.0546875 14.12939453 C-27.3946875 14.12939453 -26.7346875 14.12939453 -26.0546875 14.12939453 C-26.0546875 12.80939453 -26.0546875 11.48939453 -26.0546875 10.12939453 C-25.3946875 10.12939453 -24.7346875 10.12939453 -24.0546875 10.12939453 C-23.9309375 9.51064453 -23.8071875 8.89189453 -23.6796875 8.25439453 C-23.0546875 6.12939453 -23.0546875 6.12939453 -21.0546875 4.12939453 C-18.4296875 4.00439453 -18.4296875 4.00439453 -16.0546875 4.12939453 C-16.0546875 3.46939453 -16.0546875 2.80939453 -16.0546875 2.12939453 C-15.34441406 2.06880859 -14.63414063 2.00822266 -13.90234375 1.94580078 C-12.52369141 1.82011719 -12.52369141 1.82011719 -11.1171875 1.69189453 C-10.20066406 1.61068359 -9.28414062 1.52947266 -8.33984375 1.44580078 C-5.15720751 1.00512807 -3.55380707 0.00296351 0 0 Z " fill="#0C0C0C" transform="translate(125.0546875,270.87060546875)"/>
<path d="M0 0 C11.41587713 0 20.73127455 4.71358458 28.90014648 12.74121094 C35.32209851 19.64923328 39.76576767 27.8911322 44 36.25 C45.03487221 38.28920667 46.07002734 40.32826979 47.10546875 42.3671875 C47.59837402 43.34010742 48.0912793 44.31302734 48.59912109 45.31542969 C49.78938363 47.59638592 51.03568814 49.80535921 52.36328125 52.0078125 C57.75278036 61.31792921 57.48797064 68.67173324 56 79 C53 78 53 78 51.203125 74.82421875 C50.54407091 73.44912406 49.89354597 72.06992044 49.25 70.6875 C48.53511973 69.21619757 47.81764495 67.7461531 47.09765625 66.27734375 C46.74203613 65.5488623 46.38641602 64.82038086 46.02001953 64.06982422 C35.63682657 43.00024309 20.14031945 32.01692688 0 21 C0 14.07 0 7.14 0 0 Z " fill="#1C1D48" transform="translate(136,60)"/>
<path d="M0 0 C0.99 0 1.98 0 3 0 C3 0.66 3 1.32 3 2 C3.66 2 4.32 2 5 2 C5 2.66 5 3.32 5 4 C5.66 4 6.32 4 7 4 C7 5.32 7 6.64 7 8 C7.66 8 8.32 8 9 8 C9 8.66 9 9.32 9 10 C9.66 10 10.32 10 11 10 C11 11.32 11 12.64 11 14 C11.66 14 12.32 14 13 14 C15 17 15 17 15 20 C15.66 20 16.32 20 17 20 C17 20.66 17 21.32 17 22 C17.66 22 18.32 22 19 22 C19 23.32 19 24.64 19 26 C19.66 26 20.32 26 21 26 C21 26.66 21 27.32 21 28 C21.66 28 22.32 28 23 28 C23 29.32 23 30.64 23 32 C23.66 32 24.32 32 25 32 C25 32.66 25 33.32 25 34 C25.66 34 26.32 34 27 34 C27 35.32 27 36.64 27 38 C27.66 38 28.32 38 29 38 C29 38.66 29 39.32 29 40 C29.66 40 30.32 40 31 40 C31 41.32 31 42.64 31 44 C31.66 44 32.32 44 33 44 C33 44.66 33 45.32 33 46 C33.66 46 34.32 46 35 46 C35.99 48.97 35.99 48.97 37 52 C37.66 52 38.32 52 39 52 C41 55 41 55 41 58 C41.66 58 42.32 58 43 58 C43 58.66 43 59.32 43 60 C43.66 60 44.32 60 45 60 C45 61.32 45 62.64 45 64 C45.66 64 46.32 64 47 64 C47 64.66 47 65.32 47 66 C47.66 66 48.32 66 49 66 C49 67.32 49 68.64 49 70 C49.66 70 50.32 70 51 70 C51 70.66 51 71.32 51 72 C51.66 72 52.32 72 53 72 C53 73.32 53 74.64 53 76 C53.66 76 54.32 76 55 76 C55 76.66 55 77.32 55 78 C55.66 78 56.32 78 57 78 C57 78.66 57 79.32 57 80 C57.66 80 58.32 80 59 80 C59.125 82.875 59.125 82.875 59 86 C56.56286881 88.43713119 55.91066206 88.2562288 52.5703125 88.265625 C51.25353516 88.26949219 51.25353516 88.26949219 49.91015625 88.2734375 C48.99105469 88.26570313 48.07195312 88.25796875 47.125 88.25 C46.21363281 88.25773437 45.30226563 88.26546875 44.36328125 88.2734375 C43.48285156 88.27085938 42.60242188 88.26828125 41.6953125 88.265625 C40.89109863 88.26336914 40.08688477 88.26111328 39.25830078 88.25878906 C36.78464659 87.97532166 35.14402046 87.23549563 33 86 C33 86.66 33 87.32 33 88 C32.01 88.66 31.02 89.32 30 90 C29.56900401 92.01125036 29.56900401 92.01125036 29.671875 94.31640625 C29.67960937 95.58581055 29.67960937 95.58581055 29.6875 96.88085938 C29.708125 97.76580078 29.72875 98.65074219 29.75 99.5625 C29.75773437 100.89571289 29.75773437 100.89571289 29.765625 102.25585938 C29.44739345 106.45727079 29.44739345 106.45727079 31 110 C31.09575309 111.50551174 31.12188187 113.0155103 31.12025452 114.52406311 C31.12231651 115.99018791 31.12231651 115.99018791 31.12442017 117.4859314 C31.11902725 119.10756699 31.11902725 119.10756699 31.11352539 120.76196289 C31.11367142 121.8935231 31.11381744 123.02508331 31.1139679 124.19093323 C31.11326819 127.95152671 31.10547311 131.71207137 31.09765625 135.47265625 C31.09579227 138.07197543 31.09436828 140.67129497 31.09336853 143.27061462 C31.08993341 149.42588577 31.08204256 155.5811366 31.07201904 161.73640007 C31.06085694 168.74233346 31.05534721 175.74826767 31.05032361 182.75420773 C31.03985992 197.16948133 31.02226108 211.58474004 31 226 C30.34 226 29.68 226 29 226 C29 226.66 29 227.32 29 228 C28.34 228 27.68 228 27 228 C27 228.66 27 229.32 27 230 C25.71222656 230.06058594 24.42445313 230.12117187 23.09765625 230.18359375 C21.41925841 230.26798247 19.74087364 230.3526313 18.0625 230.4375 C17.21236328 230.47681641 16.36222656 230.51613281 15.48632812 230.55664062 C14.27299805 230.61948242 14.27299805 230.61948242 13.03515625 230.68359375 C12.2862915 230.72025146 11.53742676 230.75690918 10.76586914 230.79467773 C8.97538674 230.81771063 8.97538674 230.81771063 8 232 C6.48071962 232.07179964 4.95832518 232.08392007 3.4375 232.0625 C2.61121094 232.05347656 1.78492188 232.04445312 0.93359375 232.03515625 C0.29550781 232.02355469 -0.34257812 232.01195312 -1 232 C-1 232.66 -1 233.32 -1 234 C-2.98 234 -4.96 234 -7 234 C-7 234.66 -7 235.32 -7 236 C-8.98 236 -10.96 236 -13 236 C-13 236.66 -13 237.32 -13 238 C-14.98 238 -16.96 238 -19 238 C-19 238.66 -19 239.32 -19 240 C-20.32 240 -21.64 240 -23 240 C-23 240.66 -23 241.32 -23 242 C-24.32 242 -25.64 242 -27 242 C-27 242.66 -27 243.32 -27 244 C-28.32 244 -29.64 244 -31 244 C-31 244.66 -31 245.32 -31 246 C-32.32 246 -33.64 246 -35 246 C-35 246.66 -35 247.32 -35 248 C-38.96 248 -42.92 248 -47 248 C-47 247.34 -47 246.68 -47 246 C-48.32 246 -49.64 246 -51 246 C-51 245.34 -51 244.68 -51 244 C-52.32 244 -53.64 244 -55 244 C-55 243.34 -55 242.68 -55 242 C-55.66 242 -56.32 242 -57 242 C-57 241.34 -57 240.68 -57 240 C-57.66 240 -58.32 240 -59 240 C-59 239.34 -59 238.68 -59 238 C-59.66 238 -60.32 238 -61 238 C-61 237.34 -61 236.68 -61 236 C-61.66 236 -62.32 236 -63 236 C-63 235.34 -63 234.68 -63 234 C-63.66 234 -64.32 234 -65 234 C-64.505 232.02 -64.505 232.02 -64 230 C-62.8553125 231.5159375 -62.8553125 231.5159375 -61.6875 233.0625 C-57.59381331 237.86940656 -52.43314016 240.88948622 -47 244 C-46.33226562 244.41636719 -45.66453125 244.83273438 -44.9765625 245.26171875 C-42.26260444 246.27543036 -40.74201834 245.86165592 -38 245 C-35.80273782 243.811112 -35.80273782 243.811112 -33.625 242.3125 C-15.42189093 231.03360478 6.91388591 226 28 226 C28 179.14 28 132.28 28 84 C37.24 83.67 46.48 83.34 56 83 C50.36587607 74.78356926 44.7137434 66.58159122 39.01245117 58.41162109 C33.6378322 50.70793733 28.27155506 43.00504589 23.09985352 35.16333008 C20.15993843 30.71463762 17.1705187 26.30106871 14.16796875 21.89453125 C13.73576523 21.25979385 13.30356171 20.62505646 12.85826111 19.97108459 C11.0895257 17.37387272 9.32060162 14.77680592 7.54721069 12.18276978 C6.29771713 10.35496282 5.05098414 8.52530017 3.8046875 6.6953125 C3.07233887 5.62297363 2.33999023 4.55063477 1.58544922 3.44580078 C0 1 0 1 0 0 Z " fill="#FEFEFD" transform="translate(316,3)"/>
<path d="M0 0 C0.99 0 1.98 0 3 0 C3 0.66 3 1.32 3 2 C3.66 2 4.32 2 5 2 C7.1519437 5.22791555 7.20086443 6.28400809 7 10 C7.66 10 8.32 10 9 10 C9 11.32 9 12.64 9 14 C9.66 14 10.32 14 11 14 C11 15.32 11 16.64 11 18 C11.66 18 12.32 18 13 18 C13 18.66 13 19.32 13 20 C13.66 20 14.32 20 15 20 C15.38063221 22.3260857 15.71269945 24.66055264 16 27 C14.1144747 28.8855253 11.42231169 28.13246689 8.91796875 28.13671875 C8.12003906 28.13285156 7.32210937 28.12898438 6.5 28.125 C5.30310547 28.13080078 5.30310547 28.13080078 4.08203125 28.13671875 C-1.87339233 28.12660767 -1.87339233 28.12660767 -3 27 C-4.49870048 26.90168854 -6.00198539 26.87201544 -7.50390625 26.87060547 C-8.46159912 26.86745331 -9.41929199 26.86430115 -10.40600586 26.86105347 C-11.44764893 26.8630777 -12.48929199 26.86510193 -13.5625 26.8671875 C-14.62412354 26.86623077 -15.68574707 26.86527405 -16.77954102 26.86428833 C-19.02913472 26.86360636 -21.27873037 26.86546181 -23.52832031 26.86962891 C-26.98507071 26.8749769 -30.44169117 26.86968446 -33.8984375 26.86328125 C-36.07812529 26.86394203 -38.257813 26.86522318 -40.4375 26.8671875 C-41.47914307 26.86516327 -42.52078613 26.86313904 -43.59399414 26.86105347 C-45.03053345 26.86578171 -45.03053345 26.86578171 -46.49609375 26.87060547 C-47.34357178 26.87140106 -48.1910498 26.87219666 -49.06420898 26.87301636 C-51.0065713 26.78680292 -51.0065713 26.78680292 -52 28 C-54.35203598 28.16016386 -56.70703279 28.27753239 -59.0625 28.375 C-64.96529571 28.6869533 -69.60151549 29.58996227 -75 32 C-79.15004353 33.3364547 -82.63216645 34.26471719 -87 34 C-87 34.66 -87 35.32 -87 36 C-87.66 36 -88.32 36 -89 36 C-89.33 36.99 -89.66 37.98 -90 39 C-91.97436523 39.99560547 -91.97436523 39.99560547 -94.55859375 40.8671875 C-95.50283203 41.19589844 -96.44707031 41.52460938 -97.41992188 41.86328125 C-98.41572266 42.19714844 -99.41152344 42.53101563 -100.4375 42.875 C-107.24917698 45.18667576 -113.62585948 47.64790435 -119.92602539 51.14892578 C-122 52 -122 52 -125 51 C-121.22782776 46.87962725 -117.38518231 44.17653112 -112.5 41.5 C-111.79004883 41.1083667 -111.08009766 40.7167334 -110.34863281 40.31323242 C-104.08710503 36.92894548 -97.76252922 34.23695017 -91 32 C-90.28392578 31.75652832 -89.56785156 31.51305664 -88.83007812 31.26220703 C-86.39398397 30.44223112 -83.94925665 29.65472321 -81.5 28.875 C-80.77264648 28.63305908 -80.04529297 28.39111816 -79.29589844 28.1418457 C-63.44044349 23.2897305 -46.69731295 22.49897698 -30.23339844 22.60888672 C-27.36865974 22.62503574 -24.50532286 22.60888315 -21.640625 22.58984375 C-9.49155218 22.57815071 2.06893439 23.72305269 14 26 C13.64695801 25.35450195 13.29391602 24.70900391 12.93017578 24.04394531 C11.32771201 21.11303328 9.72634475 18.18152356 8.125 15.25 C7.56941406 14.23421875 7.01382813 13.2184375 6.44140625 12.171875 C5.90644531 11.1921875 5.37148438 10.2125 4.8203125 9.203125 C4.32805176 8.30239258 3.83579102 7.40166016 3.32861328 6.47363281 C2.17892756 4.33313011 1.0722439 2.18008097 0 0 Z " fill="#F3F3F4" transform="translate(370,239)"/>
<path d="M0 0 C2.81519008 2.81519008 4.35579498 5.10971366 6.25 8.5625 C6.79140625 9.53316406 7.3328125 10.50382813 7.890625 11.50390625 C8.25671875 12.32761719 8.6228125 13.15132812 9 14 C8.67 14.66 8.34 15.32 8 16 C7.505 14.515 7.505 14.515 7 13 C6.34 13 5.68 13 5 13 C4.505 12.01 4.505 12.01 4 11 C3.67 47.3 3.34 83.6 3 121 C2.34 121 1.68 121 1 121 C1 121.66 1 122.32 1 123 C-1.64 123 -4.28 123 -7 123 C-7 122.34 -7 121.68 -7 121 C-8.32 121 -9.64 121 -11 121 C-11 120.34 -11 119.68 -11 119 C-12.32 119 -13.64 119 -15 119 C-15 118.34 -15 117.68 -15 117 C-16.98 117 -18.96 117 -21 117 C-21 116.34 -21 115.68 -21 115 C-22.98 115 -24.96 115 -27 115 C-27 114.34 -27 113.68 -27 113 C-29.64 113 -32.28 113 -35 113 C-35 112.34 -35 111.68 -35 111 C-36.25296875 111.02320313 -37.5059375 111.04640625 -38.796875 111.0703125 C-40.4479107 111.08907427 -42.09895285 111.10727403 -43.75 111.125 C-44.9875 111.15013672 -44.9875 111.15013672 -46.25 111.17578125 C-47.04921875 111.18222656 -47.8484375 111.18867188 -48.671875 111.1953125 C-49.4050293 111.20578613 -50.13818359 111.21625977 -50.89355469 111.22705078 C-53.29896076 110.96777544 -54.91251494 110.19225925 -57 109 C-57 108.34 -57 107.68 -57 107 C-36.90298306 106.0275637 -19.01957018 112.59086725 -1 121 C-0.67 81.07 -0.34 41.14 0 0 Z " fill="#E3E4EA" transform="translate(192,122)"/>
<path d="M0 0 C1.98 0 3.96 0 6 0 C6 0.66 6 1.32 6 2 C7.32 2 8.64 2 10 2 C10 2.66 10 3.32 10 4 C11.98 4.66 13.96 5.32 16 6 C16 6.66 16 7.32 16 8 C16.66 8 17.32 8 18 8 C18 8.66 18 9.32 18 10 C18.61875 10.12375 19.2375 10.2475 19.875 10.375 C22 11 22 11 24 13 C24 13.99 24 14.98 24 16 C24.66 16 25.32 16 26 16 C26 16.66 26 17.32 26 18 C26.66 18 27.32 18 28 18 C28 19.32 28 20.64 28 22 C28.66 22 29.32 22 30 22 C30 23.32 30 24.64 30 26 C30.66 26 31.32 26 32 26 C32 27.32 32 28.64 32 30 C32.66 30 33.32 30 34 30 C34 31.32 34 32.64 34 34 C34.66 34 35.32 34 36 34 C36 35.32 36 36.64 36 38 C36.66 38 37.32 38 38 38 C38 39.32 38 40.64 38 42 C38.66 42 39.32 42 40 42 C40 43.32 40 44.64 40 46 C40.66 46 41.32 46 42 46 C42 47.32 42 48.64 42 50 C42.66 50 43.32 50 44 50 C44 51.32 44 52.64 44 54 C44.66 54 45.32 54 46 54 C48 57 48 57 48 60 C48.66 60 49.32 60 50 60 C50 61.32 50 62.64 50 64 C50.66 64 51.32 64 52 64 C52.66 66.64 53.32 69.28 54 72 C54.66 72 55.32 72 56 72 C56 73.32 56 74.64 56 76 C56.66 76 57.32 76 58 76 C58 77.32 58 78.64 58 80 C58.66 80 59.32 80 60 80 C60 81.32 60 82.64 60 84 C60.66 84 61.32 84 62 84 C62 85.32 62 86.64 62 88 C62.66 88 63.32 88 64 88 C64 89.32 64 90.64 64 92 C64.66 92 65.32 92 66 92 C66 93.32 66 94.64 66 96 C66.66 96 67.32 96 68 96 C68 97.32 68 98.64 68 100 C68.66 100 69.32 100 70 100 C70 101.32 70 102.64 70 104 C70.66 104 71.32 104 72 104 C72 105.32 72 106.64 72 108 C72.66 108 73.32 108 74 108 C76 111 76 111 76 114 C76.66 114 77.32 114 78 114 C78 115.32 78 116.64 78 118 C78.66 118 79.32 118 80 118 C80 118.66 80 119.32 80 120 C80.66 120 81.32 120 82 120 C82 92.28 82 64.56 82 36 C82.33 36 82.66 36 83 36 C83 67.02 83 98.04 83 130 C80.58365749 127.58365749 79.47207002 126.32290289 78.01391602 123.44433594 C77.65202682 122.73715927 77.29013763 122.0299826 76.9172821 121.30137634 C76.53336807 120.5367659 76.14945404 119.77215546 75.75390625 118.984375 C75.34658768 118.18500015 74.9392691 117.38562531 74.51960754 116.56202698 C73.19533338 113.96064337 71.87897271 111.35533898 70.5625 108.75 C69.19730787 106.06382272 67.83011033 103.37867238 66.46282959 100.69355774 C65.55936135 98.91890829 64.65656771 97.14391523 63.75445557 95.36857605 C60.34287446 88.65736302 56.87846518 81.97626771 53.375 75.3125 C49.79791159 68.49523715 46.29958825 61.64513073 42.875 54.75 C38.07113351 45.08363639 33.12755979 35.49886305 28 26 C27.44570312 24.96746094 26.89140625 23.93492188 26.3203125 22.87109375 C19.88805473 11.48425906 11.60522824 6.21583292 0 1 C0 0.67 0 0.34 0 0 Z " fill="#F0F1F2" transform="translate(203,61)"/>
<path d="M0 0 C0.99 0 1.98 0 3 0 C3 0.66 3 1.32 3 2 C3.66 2 4.32 2 5 2 C5 2.66 5 3.32 5 4 C5.66 4 6.32 4 7 4 C7 5.32 7 6.64 7 8 C7.66 8 8.32 8 9 8 C9 8.66 9 9.32 9 10 C9.66 10 10.32 10 11 10 C11 11.32 11 12.64 11 14 C11.66 14 12.32 14 13 14 C15 17 15 17 15 20 C15.66 20 16.32 20 17 20 C17 20.66 17 21.32 17 22 C17.66 22 18.32 22 19 22 C19 23.32 19 24.64 19 26 C19.66 26 20.32 26 21 26 C21 26.66 21 27.32 21 28 C21.66 28 22.32 28 23 28 C23 29.32 23 30.64 23 32 C23.66 32 24.32 32 25 32 C25 32.66 25 33.32 25 34 C25.66 34 26.32 34 27 34 C27 35.32 27 36.64 27 38 C27.66 38 28.32 38 29 38 C29 38.66 29 39.32 29 40 C29.66 40 30.32 40 31 40 C31 41.32 31 42.64 31 44 C31.66 44 32.32 44 33 44 C33 44.66 33 45.32 33 46 C33.66 46 34.32 46 35 46 C35.66 47.98 36.32 49.96 37 52 C37.66 52 38.32 52 39 52 C41 55 41 55 41 58 C41.66 58 42.32 58 43 58 C43 58.66 43 59.32 43 60 C43.66 60 44.32 60 45 60 C45 61.32 45 62.64 45 64 C45.66 64 46.32 64 47 64 C47 64.66 47 65.32 47 66 C47.66 66 48.32 66 49 66 C49 67.32 49 68.64 49 70 C49.66 70 50.32 70 51 70 C51 70.66 51 71.32 51 72 C51.66 72 52.32 72 53 72 C53 73.32 53 74.64 53 76 C53.66 76 54.32 76 55 76 C55 76.66 55 77.32 55 78 C55.66 78 56.32 78 57 78 C57 78.66 57 79.32 57 80 C57.66 80 58.32 80 59 80 C59.125 82.875 59.125 82.875 59 86 C56.56286881 88.43713119 55.91066206 88.2562288 52.5703125 88.265625 C51.25353516 88.26949219 51.25353516 88.26949219 49.91015625 88.2734375 C48.99105469 88.26570313 48.07195312 88.25796875 47.125 88.25 C46.21363281 88.25773437 45.30226563 88.26546875 44.36328125 88.2734375 C43.48285156 88.27085938 42.60242188 88.26828125 41.6953125 88.265625 C40.89109863 88.26336914 40.08688477 88.26111328 39.25830078 88.25878906 C36.78464659 87.97532166 35.14402046 87.23549563 33 86 C33 86.66 33 87.32 33 88 C31.37373596 89.38232443 29.7074998 90.71937515 28 92 C28 89.36 28 86.72 28 84 C37.24 83.67 46.48 83.34 56 83 C50.36587607 74.78356926 44.7137434 66.58159122 39.01245117 58.41162109 C33.6378322 50.70793733 28.27155506 43.00504589 23.09985352 35.16333008 C20.15993843 30.71463762 17.1705187 26.30106871 14.16796875 21.89453125 C13.73576523 21.25979385 13.30356171 20.62505646 12.85826111 19.97108459 C11.0895257 17.37387272 9.32060162 14.77680592 7.54721069 12.18276978 C6.29771713 10.35496282 5.05098414 8.52530017 3.8046875 6.6953125 C3.07233887 5.62297363 2.33999023 4.55063477 1.58544922 3.44580078 C0 1 0 1 0 0 Z " fill="#F1F0F0" transform="translate(316,3)"/>
<path d="M0 0 C0.495 1.485 0.495 1.485 1 3 C0.34 3 -0.32 3 -1 3 C-1 3.66 -1 4.32 -1 5 C-2.93166016 5.09087891 -2.93166016 5.09087891 -4.90234375 5.18359375 C-6.58074159 5.26798247 -8.25912636 5.3526313 -9.9375 5.4375 C-11.21270508 5.49647461 -11.21270508 5.49647461 -12.51367188 5.55664062 C-13.32255859 5.59853516 -14.13144531 5.64042969 -14.96484375 5.68359375 C-15.7137085 5.72025146 -16.46257324 5.75690918 -17.23413086 5.79467773 C-19.02461326 5.81771063 -19.02461326 5.81771063 -20 7 C-21.51928038 7.07179964 -23.04167482 7.08392007 -24.5625 7.0625 C-25.38878906 7.05347656 -26.21507812 7.04445312 -27.06640625 7.03515625 C-27.70449219 7.02355469 -28.34257812 7.01195312 -29 7 C-29 7.66 -29 8.32 -29 9 C-30.98 9 -32.96 9 -35 9 C-35 9.66 -35 10.32 -35 11 C-36.98 11 -38.96 11 -41 11 C-41 11.66 -41 12.32 -41 13 C-42.98 13 -44.96 13 -47 13 C-47 13.66 -47 14.32 -47 15 C-48.32 15 -49.64 15 -51 15 C-51 15.66 -51 16.32 -51 17 C-52.32 17 -53.64 17 -55 17 C-55 17.66 -55 18.32 -55 19 C-56.32 19 -57.64 19 -59 19 C-59 19.66 -59 20.32 -59 21 C-60.32 21 -61.64 21 -63 21 C-63 21.66 -63 22.32 -63 23 C-66.96 23 -70.92 23 -75 23 C-75 22.34 -75 21.68 -75 21 C-76.32 21 -77.64 21 -79 21 C-79 20.34 -79 19.68 -79 19 C-80.32 19 -81.64 19 -83 19 C-83 18.34 -83 17.68 -83 17 C-83.66 17 -84.32 17 -85 17 C-85 16.34 -85 15.68 -85 15 C-85.66 15 -86.32 15 -87 15 C-87 14.34 -87 13.68 -87 13 C-87.66 13 -88.32 13 -89 13 C-89 12.34 -89 11.68 -89 11 C-89.66 11 -90.32 11 -91 11 C-91 10.34 -91 9.68 -91 9 C-91.66 9 -92.32 9 -93 9 C-92.67 7.68 -92.34 6.36 -92 5 C-91.236875 6.010625 -90.47375 7.02125 -89.6875 8.0625 C-85.59381331 12.86940656 -80.43314016 15.88948622 -75 19 C-74.33226562 19.41636719 -73.66453125 19.83273438 -72.9765625 20.26171875 C-70.26260444 21.27543036 -68.74201834 20.86165592 -66 20 C-63.80273782 18.811112 -63.80273782 18.811112 -61.625 17.3125 C-43.55983634 6.11907764 -20.96353543 1.02519819 0 0 Z " fill="#F3F2F3" transform="translate(344,228)"/>
<path d="M0 0 C2.81519008 2.81519008 4.35579498 5.10971366 6.25 8.5625 C6.79140625 9.53316406 7.3328125 10.50382813 7.890625 11.50390625 C8.25671875 12.32761719 8.6228125 13.15132812 9 14 C8.67 14.66 8.34 15.32 8 16 C7.67 15.01 7.34 14.02 7 13 C6.34 13 5.68 13 5 13 C4.67 12.34 4.34 11.68 4 11 C3.67 47.3 3.34 83.6 3 121 C2.34 121 1.68 121 1 121 C0.67 81.07 0.34 41.14 0 0 Z " fill="#FDFDFC" transform="translate(192,122)"/>
<path d="M0 0 C0.74375885 0.00459229 1.4875177 0.00918457 2.2538147 0.01391602 C9.92686422 0.08104922 17.51468578 0.336456 25.125 1.375 C24.795 2.035 24.465 2.695 24.125 3.375 C9.605 3.375 -4.915 3.375 -19.875 3.375 C-19.875 4.035 -19.875 4.695 -19.875 5.375 C-23.835 5.375 -27.795 5.375 -31.875 5.375 C-31.875 6.035 -31.875 6.695 -31.875 7.375 C-34.3127963 7.42897335 -36.74939685 7.46865616 -39.1875 7.5 C-40.22293945 7.52513672 -40.22293945 7.52513672 -41.27929688 7.55078125 C-45.04635396 7.58717794 -46.65931704 7.51878864 -49.875 5.375 C-33.20387331 2.03402162 -17.02449597 -0.12514511 0 0 Z " fill="#ECECEC" transform="translate(308.875,283.625)"/>
<path d="M0 0 C1.98 0 3.96 0 6 0 C6 0.66 6 1.32 6 2 C7.32 2 8.64 2 10 2 C10 2.66 10 3.32 10 4 C11.98 4.66 13.96 5.32 16 6 C16 6.66 16 7.32 16 8 C16.66 8 17.32 8 18 8 C18 8.66 18 9.32 18 10 C18.61875 10.12375 19.2375 10.2475 19.875 10.375 C22 11 22 11 24 13 C24 13.99 24 14.98 24 16 C24.66 16 25.32 16 26 16 C26 16.66 26 17.32 26 18 C26.66 18 27.32 18 28 18 C28 19.32 28 20.64 28 22 C28.66 22 29.32 22 30 22 C30 23.32 30 24.64 30 26 C30.66 26 31.32 26 32 26 C32 27.32 32 28.64 32 30 C32.66 30 33.32 30 34 30 C34 31.32 34 32.64 34 34 C34.66 34 35.32 34 36 34 C36 35.32 36 36.64 36 38 C36.66 38 37.32 38 38 38 C38 39.98 38 41.96 38 44 C35.8693962 41.30834991 34.26719629 38.70244186 32.8359375 35.5859375 C25.25080138 19.48163422 17.25467115 7.60817193 0 1 C0 0.67 0 0.34 0 0 Z " fill="#EFEEEE" transform="translate(203,61)"/>
<path d="M0 0 C10.23 0 20.46 0 31 0 C30.34 1.32 29.68 2.64 29 4 C25.75007554 4.05819424 22.50028565 4.09366116 19.25 4.125 C18.32960938 4.14175781 17.40921875 4.15851563 16.4609375 4.17578125 C15.57148438 4.18222656 14.68203125 4.18867187 13.765625 4.1953125 C12.54020996 4.21102295 12.54020996 4.21102295 11.29003906 4.22705078 C8.78112482 3.97829916 7.16604375 3.25700129 5 2 C5 2.66 5 3.32 5 4 C3.37373596 5.38232443 1.7074998 6.71937515 0 8 C0 5.36 0 2.72 0 0 Z " fill="#F6F6F7" transform="translate(344,87)"/>
<path d="M0 0 C9.57 0 19.14 0 29 0 C29 1.98 29 3.96 29 6 C28.5875 5.525625 28.175 5.05125 27.75 4.5625 C25.817815 2.83733482 24.51807725 2.43415125 22 2 C22 2.66 22 3.32 22 4 C15.4 4 8.8 4 2 4 C2 3.34 2 2.68 2 2 C1.34 2 0.68 2 0 2 C0 1.34 0 0.68 0 0 Z " fill="#F7F8F8" transform="translate(257,87)"/>
<path d="M0 0 C2.78408813 -0.36076355 2.78408813 -0.36076355 6.37744141 -0.34057617 C7.03122269 -0.34101425 7.68500397 -0.34145233 8.3585968 -0.34190369 C10.52322075 -0.33981081 12.6870736 -0.3164578 14.8515625 -0.29296875 C16.35085629 -0.28737453 17.85015556 -0.28310361 19.34945679 -0.28010559 C23.29845277 -0.26864298 27.24711852 -0.239164 31.19598389 -0.20599365 C35.22436047 -0.17532305 39.25279035 -0.16160672 43.28125 -0.14648438 C51.18765167 -0.11429532 59.09378477 -0.06308227 67 0 C67.495 0.99 67.495 0.99 68 2 C34.835 1.505 34.835 1.505 1 1 C1 8.59 1 16.18 1 24 C0.67 24 0.34 24 0 24 C0 18.72 0 13.44 0 8 C-0.66 8 -1.32 8 -2 8 C-2.20086443 4.28400809 -2.1519437 3.22791555 0 0 Z " fill="#6B6A7B" transform="translate(135,59)"/>
<path d="M0 0 C0.99 0 1.98 0 3 0 C3 0.66 3 1.32 3 2 C3.66 2 4.32 2 5 2 C7.1519437 5.22791555 7.20086443 6.28400809 7 10 C7.66 10 8.32 10 9 10 C9 11.32 9 12.64 9 14 C9.66 14 10.32 14 11 14 C11 15.32 11 16.64 11 18 C11.66 18 12.32 18 13 18 C13 18.66 13 19.32 13 20 C13.66 20 14.32 20 15 20 C15.33 22.31 15.66 24.62 16 27 C15.01 26.67 14.02 26.34 13 26 C12.31903098 24.00482441 11.65674124 22.00328116 11 20 C9.24561433 16.65827857 7.30820606 13.42831878 5.375 10.1875 C4.36017896 8.47372097 3.34705909 6.75893303 2.3359375 5.04296875 C1.88782715 4.29039795 1.4397168 3.53782715 0.97802734 2.76245117 C0 1 0 1 0 0 Z " fill="#F0EFEF" transform="translate(370,239)"/>
<path d="M0 0 C0.70213623 0.15847412 1.40427246 0.31694824 2.12768555 0.48022461 C5.10447541 1.01890592 7.93483803 1.20791726 10.95703125 1.31640625 C12.62475586 1.37924805 12.62475586 1.37924805 14.32617188 1.44335938 C15.47666016 1.48267578 16.62714844 1.52199219 17.8125 1.5625 C18.98232422 1.60568359 20.15214844 1.64886719 21.35742188 1.69335938 C24.23817031 1.79918279 27.11900123 1.90126825 30 2 C30.495 2.99 30.495 2.99 31 4 C30.01604248 3.99476318 29.03208496 3.98952637 28.01831055 3.98413086 C24.36744089 3.96602971 20.71657521 3.95454925 17.06567383 3.94506836 C15.48558892 3.94003986 13.90550866 3.93321622 12.32543945 3.92456055 C10.05418754 3.91243008 7.78299715 3.90675687 5.51171875 3.90234375 C4.80536789 3.89718246 4.09901703 3.89202118 3.3712616 3.88670349 C0.29745609 3.88635197 -2.0590442 4.0196814 -5 5 C-5.33 5.66 -5.66 6.32 -6 7 C-6 6.01 -6 5.02 -6 4 C-5.34 4 -4.68 4 -4 4 C-4 3.34 -4 2.68 -4 2 C-2.68 2 -1.36 2 0 2 C0 1.34 0 0.68 0 0 Z " fill="#8B8A8B" transform="translate(113,237)"/>
<path d="M0 0 C1.98 0 3.96 0 6 0 C6 0.66 6 1.32 6 2 C7.32 2 8.64 2 10 2 C10 2.66 10 3.32 10 4 C11.98 4.66 13.96 5.32 16 6 C16 6.66 16 7.32 16 8 C16.66 8 17.32 8 18 8 C18 8.66 18 9.32 18 10 C18.61875 10.12375 19.2375 10.2475 19.875 10.375 C22 11 22 11 24 13 C24 13.99 24 14.98 24 16 C20.68194078 14.5525245 18.51551934 12.70769461 15.9375 10.1875 C11.13295668 5.79134286 6.02849094 3.34378713 0 1 C0 0.67 0 0.34 0 0 Z " fill="#E1E1E1" transform="translate(203,61)"/>
<path d="M0 0 C2.64 0 5.28 0 8 0 C8 0.66 8 1.32 8 2 C9.98 2 11.96 2 14 2 C14 2.66 14 3.32 14 4 C15.0828125 3.938125 15.0828125 3.938125 16.1875 3.875 C19.20729369 4.00921305 21.26935729 4.75170619 24 6 C24 6.66 24 7.32 24 8 C25.32 8 26.64 8 28 8 C28 8.66 28 9.32 28 10 C23.47933426 9.28759937 19.36744224 7.71586301 15.125 6.0625 C10.12860864 4.1215578 5.1769754 2.39899988 0 1 C0 0.67 0 0.34 0 0 Z " fill="#DAD9D8" transform="translate(167,245)"/>
<path d="M0 0 C2.81158409 2.49824489 4.44837831 5.278476 6.25 8.5625 C6.79140625 9.53316406 7.3328125 10.50382813 7.890625 11.50390625 C8.25671875 12.32761719 8.6228125 13.15132812 9 14 C8.67 14.66 8.34 15.32 8 16 C7.67 15.01 7.34 14.02 7 13 C6.34 13 5.68 13 5 13 C4.67 12.34 4.34 11.68 4 11 C3.34 12.32 2.68 13.64 2 15 C0.05909174 13.05909174 0.60080565 9.52706098 0.4375 6.9375 C0.35371094 5.64714844 0.26992187 4.35679688 0.18359375 3.02734375 C0.12300781 2.02832031 0.06242188 1.02929688 0 0 Z " fill="#F1F0F1" transform="translate(192,122)"/>
<path d="M0 0 C3.88971874 3.16605013 7.45035823 6.45035823 11 10 C11.99 10.66 12.98 11.32 14 12 C14 12.66 14 13.32 14 14 C12.68 14 11.36 14 10 14 C10 13.34 10 12.68 10 12 C9.34 12 8.68 12 8 12 C8 11.34 8 10.68 8 10 C7.34 10 6.68 10 6 10 C6 9.34 6 8.68 6 8 C5.34 8 4.68 8 4 8 C4 7.34 4 6.68 4 6 C3.34 6 2.68 6 2 6 C2 5.34 2 4.68 2 4 C1.34 4 0.68 4 0 4 C0 2.68 0 1.36 0 0 Z " fill="#EAEAE9" transform="translate(251,233)"/>
<path d="M0 0 C0.99 0.33 1.98 0.66 3 1 C3 1.66 3 2.32 3 3 C3.66 3 4.32 3 5 3 C5 4.32 5 5.64 5 7 C5.66 7 6.32 7 7 7 C7 8.32 7 9.64 7 11 C7.66 11 8.32 11 9 11 C8.67 12.65 8.34 14.3 8 16 C5.70351643 13.10414095 3.95652443 10.1827969 2.3125 6.875 C1.65701172 5.57175781 1.65701172 5.57175781 0.98828125 4.2421875 C0 2 0 2 0 0 Z " fill="#EAEBEB" transform="translate(254,130)"/>
<path d="M0 0 C2.16874252 0.50603992 3.99967627 0.99983813 6 2 C6 2.66 6 3.32 6 4 C6.66 4 7.32 4 8 4 C8 4.66 8 5.32 8 6 C8.66 6 9.32 6 10 6 C10 6.66 10 7.32 10 8 C10.66 8.33 11.32 8.66 12 9 C11.01 9.66 10.02 10.32 9 11 C7.86874978 9.92319498 6.74525081 8.83824365 5.625 7.75 C4.99851563 7.14671875 4.37203125 6.5434375 3.7265625 5.921875 C2.02689839 4.0299412 1.01540134 2.31798691 0 0 Z " fill="#F4F4F4" transform="translate(231,281)"/>
<path d="M0 0 C1.32 0 2.64 0 4 0 C4 0.66 4 1.32 4 2 C4.66 2 5.32 2 6 2 C6 2.66 6 3.32 6 4 C6.59296875 4.09152344 7.1859375 4.18304688 7.796875 4.27734375 C10.52534657 5.17232113 11.47125041 6.33906301 13.25 8.5625 C14.03117188 9.52349609 14.03117188 9.52349609 14.828125 10.50390625 C15.21484375 10.99761719 15.6015625 11.49132812 16 12 C15.67 12.66 15.34 13.32 15 14 C13.06172464 12.23000902 11.12435656 10.45904239 9.1875 8.6875 C8.64029297 8.18798828 8.09308594 7.68847656 7.52929688 7.17382812 C4.96878163 4.83056872 2.42060466 2.48855146 0 0 Z " fill="#F3F2F2" transform="translate(215,267)"/>
<path d="M0 0 C0.886875 0.37125 1.77375 0.7425 2.6875 1.125 C6.40826005 2.10784228 7.67438135 1.76062164 11 0 C11.33 0.99 11.66 1.98 12 3 C10.8125 4.5 10.8125 4.5 9 6 C6.3125 6.1875 6.3125 6.1875 4 6 C3.67 5.34 3.34 4.68 3 4 C1.35636866 3.27840576 -0.31050386 2.60648579 -2 2 C-1.34 1.34 -0.68 0.68 0 0 Z " fill="#CAC9C9" transform="translate(234,289)"/>
<path d="M0 0 C0.99 0 1.98 0 3 0 C5 3 5 3 5 6 C5.66 6 6.32 6 7 6 C7 6.66 7 7.32 7 8 C7.66 8 8.32 8 9 8 C9 9.98 9 11.96 9 14 C6.67489755 11.15820812 4.42299401 8.27173401 2.25 5.3125 C1.82203125 4.73113281 1.3940625 4.14976563 0.953125 3.55078125 C0 2 0 2 0 0 Z " fill="#EAE9E9" transform="translate(326,17)"/>
<path d="M0 0 C0.99 0 1.98 0 3 0 C3 1.32 3 2.64 3 4 C3.66 4 4.32 4 5 4 C5 5.32 5 6.64 5 8 C5.66 8 6.32 8 7 8 C7 9.32 7 10.64 7 12 C6.34 12 5.68 12 5 12 C4.16180842 10.37750059 3.3295884 8.75191503 2.5 7.125 C2.0359375 6.22007812 1.571875 5.31515625 1.09375 4.3828125 C0 2 0 2 0 0 Z " fill="#F8F8F8" transform="translate(262,145)"/>
<path d="M0 0 C0.66 0 1.32 0 2 0 C2 1.32 2 2.64 2 4 C2.66 4 3.32 4 4 4 C4 4.66 4 5.32 4 6 C4.66 6 5.32 6 6 6 C6.33 8.31 6.66 10.62 7 13 C6.01 12.67 5.02 12.34 4 12 C3.26919734 10.02253397 2.60578253 8.01927511 2 6 C1.34 5.01 0.68 4.02 0 3 C0 2.01 0 1.02 0 0 Z " fill="#E6E6E5" transform="translate(379,253)"/>
<path d="M0 0 C3.14803691 1.13679111 6.18874979 2.45848549 9.25 3.8125 C5.70332822 5.06377906 3.52746562 4.53535053 0 3.375 C-0.89203125 3.08753906 -1.7840625 2.80007813 -2.703125 2.50390625 C-3.37859375 2.27574219 -4.0540625 2.04757812 -4.75 1.8125 C-1.75 -0.1875 -1.75 -0.1875 0 0 Z " fill="#353535" transform="translate(229.75,289.1875)"/>
<path d="M0 0 C0.99 0 1.98 0 3 0 C3 0.66 3 1.32 3 2 C3.66 2 4.32 2 5 2 C5 3.32 5 4.64 5 6 C5.66 6 6.32 6 7 6 C7 7.65 7 9.3 7 11 C4.23455278 7.54319097 2.15078722 3.85658398 0 0 Z " fill="#EAE8E8" transform="translate(376,275)"/>
<path d="M0 0 C2.88437779 1.29299694 4.87219421 2.65941363 7 5 C6.67 5.66 6.34 6.32 6 7 C3.69 5.35 1.38 3.7 -1 2 C-0.67 1.34 -0.34 0.68 0 0 Z " fill="#262726" transform="translate(232,285)"/>
</svg>
